<?xml version="1.0" encoding="UTF-8"?>
<svg version="1.1" xmlns="http://www.w3.org/2000/svg" width="1711" height="836">
<path d="M0 0 C564.63 0 1129.26 0 1711 0 C1711 275.88 1711 551.76 1711 836 C1146.37 836 581.74 836 0 836 C0 560.12 0 284.24 0 0 Z " fill="#548686" transform="translate(0,0)"/>
<path d="M0 0 C564.63 0 1129.26 0 1711 0 C1711 26.07 1711 52.14 1711 79 C1146.37 79 581.74 79 0 79 C0 52.93 0 26.86 0 0 Z " fill="#538586" transform="translate(0,757)"/>
<path d="M0 0 C1.51796928 -0.01279495 1.51796928 -0.01279495 3.06660461 -0.02584839 C4.16592819 -0.02494202 5.26525177 -0.02403564 6.39788818 -0.02310181 C7.56434372 -0.02981903 8.73079926 -0.03653625 9.93260193 -0.04345703 C13.79054012 -0.06246157 17.64830452 -0.06636268 21.50628662 -0.06851196 C23.51187772 -0.07331408 25.51746885 -0.07811972 27.52305865 -0.08343279 C33.83046908 -0.09970372 40.13782246 -0.10460307 46.44525146 -0.10317993 C52.93514128 -0.10197988 59.4246978 -0.12305704 65.91450334 -0.15466726 C71.49942777 -0.18089303 77.0842438 -0.19154455 82.66922927 -0.19026911 C85.99907344 -0.18976116 89.32838646 -0.19721179 92.65821075 -0.21662521 C96.37770508 -0.23627765 100.09634814 -0.23044861 103.81585693 -0.21841431 C104.90708359 -0.22965332 105.99831024 -0.24089233 107.12260437 -0.25247192 C115.02172011 -0.18771265 121.31985759 1.24131187 127.42425537 6.45101929 C128.04429443 7.19480835 128.6643335 7.93859741 129.30316162 8.70492554 C130.26029053 9.81674194 130.26029053 9.81674194 131.23675537 10.95101929 C134.06746797 14.97646909 135.11434697 18.50382865 135.13308716 23.40176392 C135.14588211 24.9197332 135.14588211 24.9197332 135.15893555 26.46836853 C135.15757599 28.1173539 135.15757599 28.1173539 135.15618896 29.7996521 C135.16290619 30.96610764 135.16962341 32.13256317 135.17654419 33.33436584 C135.19554873 37.19230404 135.19944984 41.05006844 135.20159912 44.90805054 C135.20640123 46.91364163 135.21120687 48.91923276 135.21651995 50.92482257 C135.23279088 57.232233 135.23769023 63.53958637 135.23626709 69.84701538 C135.23506704 76.3369052 135.2561442 82.82646171 135.28775442 89.31626725 C135.31398019 94.90119168 135.32463171 100.48600771 135.32335627 106.07099319 C135.32284832 109.40083736 135.33029894 112.73015038 135.34971237 116.05997467 C135.36936481 119.77946899 135.36353577 123.49811206 135.35150146 127.21762085 C135.36274048 128.3088475 135.37397949 129.40007416 135.38555908 130.52436829 C135.32080037 138.42341534 133.87209801 144.68703311 128.71722412 150.82601929 C127.9824585 151.44605835 127.24769287 152.06609741 126.49066162 152.70492554 C125.39624756 153.66205444 125.39624756 153.66205444 124.27972412 154.63851929 C117.98795471 158.88393651 111.5184136 158.56399457 104.20404053 158.55795288 C102.45172874 158.56802872 102.45172874 158.56802872 100.66401672 158.57830811 C96.80670912 158.59728788 92.9495755 158.60121223 89.09222412 158.60336304 C87.08598425 158.6081655 85.07974434 158.61297155 83.07350576 158.61828387 C76.7675579 158.63454341 70.4616671 158.63945502 64.15570068 158.63803101 C57.66520232 158.63682984 51.17503662 158.65793199 44.68462241 158.68951833 C39.09884419 158.71572675 33.51317433 158.72639641 27.92733514 158.72512019 C24.59697891 158.72461192 21.26715369 158.73207692 17.93681717 158.75147629 C14.21962224 158.77110312 10.50328088 158.76531023 6.78607178 158.75326538 C5.69282089 158.76450439 4.59957001 158.77574341 3.47319031 158.787323 C-4.29639086 158.72344967 -9.69805421 157.26735616 -15.59527588 152.11898804 C-16.2269165 151.38422241 -16.85855713 150.64945679 -17.50933838 149.89242554 C-18.15644775 149.16281616 -18.80355713 148.43320679 -19.47027588 147.68148804 C-23.78143195 141.42727572 -23.43090315 134.91501457 -23.42486572 127.60580444 C-23.43158295 126.43759659 -23.43830017 125.26938873 -23.44522095 124.06578064 C-23.46420072 120.20847304 -23.46812507 116.35133941 -23.47027588 112.49398804 C-23.47507834 110.48774817 -23.47988439 108.48150826 -23.48519671 106.47526968 C-23.50145625 100.16932182 -23.50636786 93.86343102 -23.50494385 87.5574646 C-23.50374268 81.06696624 -23.52484483 74.57680053 -23.55643117 68.08638632 C-23.58263959 62.5006081 -23.59330926 56.91493825 -23.59203303 51.32909906 C-23.59152476 47.99874282 -23.59898976 44.66891761 -23.61838913 41.33858109 C-23.63801596 37.62138615 -23.63222307 33.90504479 -23.62017822 30.18783569 C-23.63141724 29.09458481 -23.64265625 28.00133392 -23.65423584 26.87495422 C-23.5903543 19.10437451 -22.15345966 13.67001303 -16.95074463 7.80648804 C-15.83506104 6.8590271 -15.83506104 6.8590271 -14.69683838 5.89242554 C-13.95562744 5.24531616 -13.2144165 4.59820679 -12.45074463 3.93148804 C-8.44245079 1.05200545 -4.90801097 0.01877874 0 0 Z " fill="#FEFEC6" transform="translate(867.1343383789063,466.7325744628906)"/>
<path d="M0 0 C1.51796928 -0.01279495 1.51796928 -0.01279495 3.06660461 -0.02584839 C4.16592819 -0.02494202 5.26525177 -0.02403564 6.39788818 -0.02310181 C7.56434372 -0.02981903 8.73079926 -0.03653625 9.93260193 -0.04345703 C13.79054012 -0.06246157 17.64830452 -0.06636268 21.50628662 -0.06851196 C23.51187772 -0.07331408 25.51746885 -0.07811972 27.52305865 -0.08343279 C33.83046908 -0.09970372 40.13782246 -0.10460307 46.44525146 -0.10317993 C52.93514128 -0.10197988 59.4246978 -0.12305704 65.91450334 -0.15466726 C71.49942777 -0.18089303 77.0842438 -0.19154455 82.66922927 -0.19026911 C85.99907344 -0.18976116 89.32838646 -0.19721179 92.65821075 -0.21662521 C96.37770508 -0.23627765 100.09634814 -0.23044861 103.81585693 -0.21841431 C104.90708359 -0.22965332 105.99831024 -0.24089233 107.12260437 -0.25247192 C115.02172011 -0.18771265 121.31985759 1.24131187 127.42425537 6.45101929 C128.04429443 7.19480835 128.6643335 7.93859741 129.30316162 8.70492554 C130.26029053 9.81674194 130.26029053 9.81674194 131.23675537 10.95101929 C134.06746797 14.97646909 135.11434697 18.50382865 135.13308716 23.40176392 C135.14588211 24.9197332 135.14588211 24.9197332 135.15893555 26.46836853 C135.15757599 28.1173539 135.15757599 28.1173539 135.15618896 29.7996521 C135.16290619 30.96610764 135.16962341 32.13256317 135.17654419 33.33436584 C135.19554873 37.19230404 135.19944984 41.05006844 135.20159912 44.90805054 C135.20640123 46.91364163 135.21120687 48.91923276 135.21651995 50.92482257 C135.23279088 57.232233 135.23769023 63.53958637 135.23626709 69.84701538 C135.23506704 76.3369052 135.2561442 82.82646171 135.28775442 89.31626725 C135.31398019 94.90119168 135.32463171 100.48600771 135.32335627 106.07099319 C135.32284832 109.40083736 135.33029894 112.73015038 135.34971237 116.05997467 C135.36936481 119.77946899 135.36353577 123.49811206 135.35150146 127.21762085 C135.36274048 128.3088475 135.37397949 129.40007416 135.38555908 130.52436829 C135.32080037 138.42341534 133.87209801 144.68703311 128.71722412 150.82601929 C127.9824585 151.44605835 127.24769287 152.06609741 126.49066162 152.70492554 C125.39624756 153.66205444 125.39624756 153.66205444 124.27972412 154.63851929 C117.98795471 158.88393651 111.5184136 158.56399457 104.20404053 158.55795288 C102.45172874 158.56802872 102.45172874 158.56802872 100.66401672 158.57830811 C96.80670912 158.59728788 92.9495755 158.60121223 89.09222412 158.60336304 C87.08598425 158.6081655 85.07974434 158.61297155 83.07350576 158.61828387 C76.7675579 158.63454341 70.4616671 158.63945502 64.15570068 158.63803101 C57.66520232 158.63682984 51.17503662 158.65793199 44.68462241 158.68951833 C39.09884419 158.71572675 33.51317433 158.72639641 27.92733514 158.72512019 C24.59697891 158.72461192 21.26715369 158.73207692 17.93681717 158.75147629 C14.21962224 158.77110312 10.50328088 158.76531023 6.78607178 158.75326538 C5.69282089 158.76450439 4.59957001 158.77574341 3.47319031 158.787323 C-4.29639086 158.72344967 -9.69805421 157.26735616 -15.59527588 152.11898804 C-16.2269165 151.38422241 -16.85855713 150.64945679 -17.50933838 149.89242554 C-18.15644775 149.16281616 -18.80355713 148.43320679 -19.47027588 147.68148804 C-23.78143195 141.42727572 -23.43090315 134.91501457 -23.42486572 127.60580444 C-23.43158295 126.43759659 -23.43830017 125.26938873 -23.44522095 124.06578064 C-23.46420072 120.20847304 -23.46812507 116.35133941 -23.47027588 112.49398804 C-23.47507834 110.48774817 -23.47988439 108.48150826 -23.48519671 106.47526968 C-23.50145625 100.16932182 -23.50636786 93.86343102 -23.50494385 87.5574646 C-23.50374268 81.06696624 -23.52484483 74.57680053 -23.55643117 68.08638632 C-23.58263959 62.5006081 -23.59330926 56.91493825 -23.59203303 51.32909906 C-23.59152476 47.99874282 -23.59898976 44.66891761 -23.61838913 41.33858109 C-23.63801596 37.62138615 -23.63222307 33.90504479 -23.62017822 30.18783569 C-23.63141724 29.09458481 -23.64265625 28.00133392 -23.65423584 26.87495422 C-23.5903543 19.10437451 -22.15345966 13.67001303 -16.95074463 7.80648804 C-15.83506104 6.8590271 -15.83506104 6.8590271 -14.69683838 5.89242554 C-13.95562744 5.24531616 -13.2144165 4.59820679 -12.45074463 3.93148804 C-8.44245079 1.05200545 -4.90801097 0.01877874 0 0 Z " fill="#FEFEC6" transform="translate(696.1343383789063,466.7325744628906)"/>
<path d="M0 0 C1.51796928 -0.01279495 1.51796928 -0.01279495 3.06660461 -0.02584839 C4.16592819 -0.02494202 5.26525177 -0.02403564 6.39788818 -0.02310181 C7.56434372 -0.02981903 8.73079926 -0.03653625 9.93260193 -0.04345703 C13.79054012 -0.06246157 17.64830452 -0.06636268 21.50628662 -0.06851196 C23.51187772 -0.07331408 25.51746885 -0.07811972 27.52305865 -0.08343279 C33.83046908 -0.09970372 40.13782246 -0.10460307 46.44525146 -0.10317993 C52.93514128 -0.10197988 59.4246978 -0.12305704 65.91450334 -0.15466726 C71.49942777 -0.18089303 77.0842438 -0.19154455 82.66922927 -0.19026911 C85.99907344 -0.18976116 89.32838646 -0.19721179 92.65821075 -0.21662521 C96.37770508 -0.23627765 100.09634814 -0.23044861 103.81585693 -0.21841431 C104.90708359 -0.22965332 105.99831024 -0.24089233 107.12260437 -0.25247192 C115.02172011 -0.18771265 121.31985759 1.24131187 127.42425537 6.45101929 C128.04429443 7.19480835 128.6643335 7.93859741 129.30316162 8.70492554 C130.26029053 9.81674194 130.26029053 9.81674194 131.23675537 10.95101929 C134.06746797 14.97646909 135.11434697 18.50382865 135.13308716 23.40176392 C135.14588211 24.9197332 135.14588211 24.9197332 135.15893555 26.46836853 C135.15757599 28.1173539 135.15757599 28.1173539 135.15618896 29.7996521 C135.16290619 30.96610764 135.16962341 32.13256317 135.17654419 33.33436584 C135.19554873 37.19230404 135.19944984 41.05006844 135.20159912 44.90805054 C135.20640123 46.91364163 135.21120687 48.91923276 135.21651995 50.92482257 C135.23279088 57.232233 135.23769023 63.53958637 135.23626709 69.84701538 C135.23506704 76.3369052 135.2561442 82.82646171 135.28775442 89.31626725 C135.31398019 94.90119168 135.32463171 100.48600771 135.32335627 106.07099319 C135.32284832 109.40083736 135.33029894 112.73015038 135.34971237 116.05997467 C135.36936481 119.77946899 135.36353577 123.49811206 135.35150146 127.21762085 C135.36274048 128.3088475 135.37397949 129.40007416 135.38555908 130.52436829 C135.32080037 138.42341534 133.87209801 144.68703311 128.71722412 150.82601929 C127.9824585 151.44605835 127.24769287 152.06609741 126.49066162 152.70492554 C125.39624756 153.66205444 125.39624756 153.66205444 124.27972412 154.63851929 C117.98795471 158.88393651 111.5184136 158.56399457 104.20404053 158.55795288 C102.45172874 158.56802872 102.45172874 158.56802872 100.66401672 158.57830811 C96.80670912 158.59728788 92.9495755 158.60121223 89.09222412 158.60336304 C87.08598425 158.6081655 85.07974434 158.61297155 83.07350576 158.61828387 C76.7675579 158.63454341 70.4616671 158.63945502 64.15570068 158.63803101 C57.66520232 158.63682984 51.17503662 158.65793199 44.68462241 158.68951833 C39.09884419 158.71572675 33.51317433 158.72639641 27.92733514 158.72512019 C24.59697891 158.72461192 21.26715369 158.73207692 17.93681717 158.75147629 C14.21962224 158.77110312 10.50328088 158.76531023 6.78607178 158.75326538 C5.69282089 158.76450439 4.59957001 158.77574341 3.47319031 158.787323 C-4.29639086 158.72344967 -9.69805421 157.26735616 -15.59527588 152.11898804 C-16.2269165 151.38422241 -16.85855713 150.64945679 -17.50933838 149.89242554 C-18.15644775 149.16281616 -18.80355713 148.43320679 -19.47027588 147.68148804 C-23.78143195 141.42727572 -23.43090315 134.91501457 -23.42486572 127.60580444 C-23.43158295 126.43759659 -23.43830017 125.26938873 -23.44522095 124.06578064 C-23.46420072 120.20847304 -23.46812507 116.35133941 -23.47027588 112.49398804 C-23.47507834 110.48774817 -23.47988439 108.48150826 -23.48519671 106.47526968 C-23.50145625 100.16932182 -23.50636786 93.86343102 -23.50494385 87.5574646 C-23.50374268 81.06696624 -23.52484483 74.57680053 -23.55643117 68.08638632 C-23.58263959 62.5006081 -23.59330926 56.91493825 -23.59203303 51.32909906 C-23.59152476 47.99874282 -23.59898976 44.66891761 -23.61838913 41.33858109 C-23.63801596 37.62138615 -23.63222307 33.90504479 -23.62017822 30.18783569 C-23.63141724 29.09458481 -23.64265625 28.00133392 -23.65423584 26.87495422 C-23.5903543 19.10437451 -22.15345966 13.67001303 -16.95074463 7.80648804 C-15.83506104 6.8590271 -15.83506104 6.8590271 -14.69683838 5.89242554 C-13.95562744 5.24531616 -13.2144165 4.59820679 -12.45074463 3.93148804 C-8.44245079 1.05200545 -4.90801097 0.01877874 0 0 Z " fill="#FEFEC6" transform="translate(525.1343383789063,466.7325744628906)"/>
<path d="M0 0 C1.51796928 -0.01279495 1.51796928 -0.01279495 3.06660461 -0.02584839 C4.16592819 -0.02494202 5.26525177 -0.02403564 6.39788818 -0.02310181 C7.56434372 -0.02981903 8.73079926 -0.03653625 9.93260193 -0.04345703 C13.79054012 -0.06246157 17.64830452 -0.06636268 21.50628662 -0.06851196 C23.51187772 -0.07331408 25.51746885 -0.07811972 27.52305865 -0.08343279 C33.83046908 -0.09970372 40.13782246 -0.10460307 46.44525146 -0.10317993 C52.93514128 -0.10197988 59.4246978 -0.12305704 65.91450334 -0.15466726 C71.49942777 -0.18089303 77.0842438 -0.19154455 82.66922927 -0.19026911 C85.99907344 -0.18976116 89.32838646 -0.19721179 92.65821075 -0.21662521 C96.37770508 -0.23627765 100.09634814 -0.23044861 103.81585693 -0.21841431 C104.90708359 -0.22965332 105.99831024 -0.24089233 107.12260437 -0.25247192 C115.02172011 -0.18771265 121.31985759 1.24131187 127.42425537 6.45101929 C128.04429443 7.19480835 128.6643335 7.93859741 129.30316162 8.70492554 C130.26029053 9.81674194 130.26029053 9.81674194 131.23675537 10.95101929 C134.06746797 14.97646909 135.11434697 18.50382865 135.13308716 23.40176392 C135.14588211 24.9197332 135.14588211 24.9197332 135.15893555 26.46836853 C135.15757599 28.1173539 135.15757599 28.1173539 135.15618896 29.7996521 C135.16290619 30.96610764 135.16962341 32.13256317 135.17654419 33.33436584 C135.19554873 37.19230404 135.19944984 41.05006844 135.20159912 44.90805054 C135.20640123 46.91364163 135.21120687 48.91923276 135.21651995 50.92482257 C135.23279088 57.232233 135.23769023 63.53958637 135.23626709 69.84701538 C135.23506704 76.3369052 135.2561442 82.82646171 135.28775442 89.31626725 C135.31398019 94.90119168 135.32463171 100.48600771 135.32335627 106.07099319 C135.32284832 109.40083736 135.33029894 112.73015038 135.34971237 116.05997467 C135.36936481 119.77946899 135.36353577 123.49811206 135.35150146 127.21762085 C135.36274048 128.3088475 135.37397949 129.40007416 135.38555908 130.52436829 C135.32080037 138.42341534 133.87209801 144.68703311 128.71722412 150.82601929 C127.9824585 151.44605835 127.24769287 152.06609741 126.49066162 152.70492554 C125.39624756 153.66205444 125.39624756 153.66205444 124.27972412 154.63851929 C117.98795471 158.88393651 111.5184136 158.56399457 104.20404053 158.55795288 C102.45172874 158.56802872 102.45172874 158.56802872 100.66401672 158.57830811 C96.80670912 158.59728788 92.9495755 158.60121223 89.09222412 158.60336304 C87.08598425 158.6081655 85.07974434 158.61297155 83.07350576 158.61828387 C76.7675579 158.63454341 70.4616671 158.63945502 64.15570068 158.63803101 C57.66520232 158.63682984 51.17503662 158.65793199 44.68462241 158.68951833 C39.09884419 158.71572675 33.51317433 158.72639641 27.92733514 158.72512019 C24.59697891 158.72461192 21.26715369 158.73207692 17.93681717 158.75147629 C14.21962224 158.77110312 10.50328088 158.76531023 6.78607178 158.75326538 C5.69282089 158.76450439 4.59957001 158.77574341 3.47319031 158.787323 C-4.29639086 158.72344967 -9.69805421 157.26735616 -15.59527588 152.11898804 C-16.2269165 151.38422241 -16.85855713 150.64945679 -17.50933838 149.89242554 C-18.15644775 149.16281616 -18.80355713 148.43320679 -19.47027588 147.68148804 C-23.78143195 141.42727572 -23.43090315 134.91501457 -23.42486572 127.60580444 C-23.43158295 126.43759659 -23.43830017 125.26938873 -23.44522095 124.06578064 C-23.46420072 120.20847304 -23.46812507 116.35133941 -23.47027588 112.49398804 C-23.47507834 110.48774817 -23.47988439 108.48150826 -23.48519671 106.47526968 C-23.50145625 100.16932182 -23.50636786 93.86343102 -23.50494385 87.5574646 C-23.50374268 81.06696624 -23.52484483 74.57680053 -23.55643117 68.08638632 C-23.58263959 62.5006081 -23.59330926 56.91493825 -23.59203303 51.32909906 C-23.59152476 47.99874282 -23.59898976 44.66891761 -23.61838913 41.33858109 C-23.63801596 37.62138615 -23.63222307 33.90504479 -23.62017822 30.18783569 C-23.63141724 29.09458481 -23.64265625 28.00133392 -23.65423584 26.87495422 C-23.5903543 19.10437451 -22.15345966 13.67001303 -16.95074463 7.80648804 C-15.83506104 6.8590271 -15.83506104 6.8590271 -14.69683838 5.89242554 C-13.95562744 5.24531616 -13.2144165 4.59820679 -12.45074463 3.93148804 C-8.44245079 1.05200545 -4.90801097 0.01877874 0 0 Z " fill="#FEFEC6" transform="translate(867.1343383789063,286.7325744628906)"/>
<path d="M0 0 C1.51796928 -0.01279495 1.51796928 -0.01279495 3.06660461 -0.02584839 C4.16592819 -0.02494202 5.26525177 -0.02403564 6.39788818 -0.02310181 C7.56434372 -0.02981903 8.73079926 -0.03653625 9.93260193 -0.04345703 C13.79054012 -0.06246157 17.64830452 -0.06636268 21.50628662 -0.06851196 C23.51187772 -0.07331408 25.51746885 -0.07811972 27.52305865 -0.08343279 C33.83046908 -0.09970372 40.13782246 -0.10460307 46.44525146 -0.10317993 C52.93514128 -0.10197988 59.4246978 -0.12305704 65.91450334 -0.15466726 C71.49942777 -0.18089303 77.0842438 -0.19154455 82.66922927 -0.19026911 C85.99907344 -0.18976116 89.32838646 -0.19721179 92.65821075 -0.21662521 C96.37770508 -0.23627765 100.09634814 -0.23044861 103.81585693 -0.21841431 C104.90708359 -0.22965332 105.99831024 -0.24089233 107.12260437 -0.25247192 C115.02172011 -0.18771265 121.31985759 1.24131187 127.42425537 6.45101929 C128.04429443 7.19480835 128.6643335 7.93859741 129.30316162 8.70492554 C130.26029053 9.81674194 130.26029053 9.81674194 131.23675537 10.95101929 C134.06746797 14.97646909 135.11434697 18.50382865 135.13308716 23.40176392 C135.14588211 24.9197332 135.14588211 24.9197332 135.15893555 26.46836853 C135.15757599 28.1173539 135.15757599 28.1173539 135.15618896 29.7996521 C135.16290619 30.96610764 135.16962341 32.13256317 135.17654419 33.33436584 C135.19554873 37.19230404 135.19944984 41.05006844 135.20159912 44.90805054 C135.20640123 46.91364163 135.21120687 48.91923276 135.21651995 50.92482257 C135.23279088 57.232233 135.23769023 63.53958637 135.23626709 69.84701538 C135.23506704 76.3369052 135.2561442 82.82646171 135.28775442 89.31626725 C135.31398019 94.90119168 135.32463171 100.48600771 135.32335627 106.07099319 C135.32284832 109.40083736 135.33029894 112.73015038 135.34971237 116.05997467 C135.36936481 119.77946899 135.36353577 123.49811206 135.35150146 127.21762085 C135.36274048 128.3088475 135.37397949 129.40007416 135.38555908 130.52436829 C135.32080037 138.42341534 133.87209801 144.68703311 128.71722412 150.82601929 C127.9824585 151.44605835 127.24769287 152.06609741 126.49066162 152.70492554 C125.39624756 153.66205444 125.39624756 153.66205444 124.27972412 154.63851929 C117.98795471 158.88393651 111.5184136 158.56399457 104.20404053 158.55795288 C102.45172874 158.56802872 102.45172874 158.56802872 100.66401672 158.57830811 C96.80670912 158.59728788 92.9495755 158.60121223 89.09222412 158.60336304 C87.08598425 158.6081655 85.07974434 158.61297155 83.07350576 158.61828387 C76.7675579 158.63454341 70.4616671 158.63945502 64.15570068 158.63803101 C57.66520232 158.63682984 51.17503662 158.65793199 44.68462241 158.68951833 C39.09884419 158.71572675 33.51317433 158.72639641 27.92733514 158.72512019 C24.59697891 158.72461192 21.26715369 158.73207692 17.93681717 158.75147629 C14.21962224 158.77110312 10.50328088 158.76531023 6.78607178 158.75326538 C5.69282089 158.76450439 4.59957001 158.77574341 3.47319031 158.787323 C-4.29639086 158.72344967 -9.69805421 157.26735616 -15.59527588 152.11898804 C-16.2269165 151.38422241 -16.85855713 150.64945679 -17.50933838 149.89242554 C-18.15644775 149.16281616 -18.80355713 148.43320679 -19.47027588 147.68148804 C-23.78143195 141.42727572 -23.43090315 134.91501457 -23.42486572 127.60580444 C-23.43158295 126.43759659 -23.43830017 125.26938873 -23.44522095 124.06578064 C-23.46420072 120.20847304 -23.46812507 116.35133941 -23.47027588 112.49398804 C-23.47507834 110.48774817 -23.47988439 108.48150826 -23.48519671 106.47526968 C-23.50145625 100.16932182 -23.50636786 93.86343102 -23.50494385 87.5574646 C-23.50374268 81.06696624 -23.52484483 74.57680053 -23.55643117 68.08638632 C-23.58263959 62.5006081 -23.59330926 56.91493825 -23.59203303 51.32909906 C-23.59152476 47.99874282 -23.59898976 44.66891761 -23.61838913 41.33858109 C-23.63801596 37.62138615 -23.63222307 33.90504479 -23.62017822 30.18783569 C-23.63141724 29.09458481 -23.64265625 28.00133392 -23.65423584 26.87495422 C-23.5903543 19.10437451 -22.15345966 13.67001303 -16.95074463 7.80648804 C-15.83506104 6.8590271 -15.83506104 6.8590271 -14.69683838 5.89242554 C-13.95562744 5.24531616 -13.2144165 4.59820679 -12.45074463 3.93148804 C-8.44245079 1.05200545 -4.90801097 0.01877874 0 0 Z " fill="#FEFEC6" transform="translate(696.1343383789063,286.7325744628906)"/>
<path d="M0 0 C1.51796928 -0.01279495 1.51796928 -0.01279495 3.06660461 -0.02584839 C4.16592819 -0.02494202 5.26525177 -0.02403564 6.39788818 -0.02310181 C7.56434372 -0.02981903 8.73079926 -0.03653625 9.93260193 -0.04345703 C13.79054012 -0.06246157 17.64830452 -0.06636268 21.50628662 -0.06851196 C23.51187772 -0.07331408 25.51746885 -0.07811972 27.52305865 -0.08343279 C33.83046908 -0.09970372 40.13782246 -0.10460307 46.44525146 -0.10317993 C52.93514128 -0.10197988 59.4246978 -0.12305704 65.91450334 -0.15466726 C71.49942777 -0.18089303 77.0842438 -0.19154455 82.66922927 -0.19026911 C85.99907344 -0.18976116 89.32838646 -0.19721179 92.65821075 -0.21662521 C96.37770508 -0.23627765 100.09634814 -0.23044861 103.81585693 -0.21841431 C104.90708359 -0.22965332 105.99831024 -0.24089233 107.12260437 -0.25247192 C115.02172011 -0.18771265 121.31985759 1.24131187 127.42425537 6.45101929 C128.04429443 7.19480835 128.6643335 7.93859741 129.30316162 8.70492554 C130.26029053 9.81674194 130.26029053 9.81674194 131.23675537 10.95101929 C134.06746797 14.97646909 135.11434697 18.50382865 135.13308716 23.40176392 C135.14588211 24.9197332 135.14588211 24.9197332 135.15893555 26.46836853 C135.15757599 28.1173539 135.15757599 28.1173539 135.15618896 29.7996521 C135.16290619 30.96610764 135.16962341 32.13256317 135.17654419 33.33436584 C135.19554873 37.19230404 135.19944984 41.05006844 135.20159912 44.90805054 C135.20640123 46.91364163 135.21120687 48.91923276 135.21651995 50.92482257 C135.23279088 57.232233 135.23769023 63.53958637 135.23626709 69.84701538 C135.23506704 76.3369052 135.2561442 82.82646171 135.28775442 89.31626725 C135.31398019 94.90119168 135.32463171 100.48600771 135.32335627 106.07099319 C135.32284832 109.40083736 135.33029894 112.73015038 135.34971237 116.05997467 C135.36936481 119.77946899 135.36353577 123.49811206 135.35150146 127.21762085 C135.36274048 128.3088475 135.37397949 129.40007416 135.38555908 130.52436829 C135.32080037 138.42341534 133.87209801 144.68703311 128.71722412 150.82601929 C127.9824585 151.44605835 127.24769287 152.06609741 126.49066162 152.70492554 C125.39624756 153.66205444 125.39624756 153.66205444 124.27972412 154.63851929 C117.98795471 158.88393651 111.5184136 158.56399457 104.20404053 158.55795288 C102.45172874 158.56802872 102.45172874 158.56802872 100.66401672 158.57830811 C96.80670912 158.59728788 92.9495755 158.60121223 89.09222412 158.60336304 C87.08598425 158.6081655 85.07974434 158.61297155 83.07350576 158.61828387 C76.7675579 158.63454341 70.4616671 158.63945502 64.15570068 158.63803101 C57.66520232 158.63682984 51.17503662 158.65793199 44.68462241 158.68951833 C39.09884419 158.71572675 33.51317433 158.72639641 27.92733514 158.72512019 C24.59697891 158.72461192 21.26715369 158.73207692 17.93681717 158.75147629 C14.21962224 158.77110312 10.50328088 158.76531023 6.78607178 158.75326538 C5.69282089 158.76450439 4.59957001 158.77574341 3.47319031 158.787323 C-4.29639086 158.72344967 -9.69805421 157.26735616 -15.59527588 152.11898804 C-16.2269165 151.38422241 -16.85855713 150.64945679 -17.50933838 149.89242554 C-18.15644775 149.16281616 -18.80355713 148.43320679 -19.47027588 147.68148804 C-23.78143195 141.42727572 -23.43090315 134.91501457 -23.42486572 127.60580444 C-23.43158295 126.43759659 -23.43830017 125.26938873 -23.44522095 124.06578064 C-23.46420072 120.20847304 -23.46812507 116.35133941 -23.47027588 112.49398804 C-23.47507834 110.48774817 -23.47988439 108.48150826 -23.48519671 106.47526968 C-23.50145625 100.16932182 -23.50636786 93.86343102 -23.50494385 87.5574646 C-23.50374268 81.06696624 -23.52484483 74.57680053 -23.55643117 68.08638632 C-23.58263959 62.5006081 -23.59330926 56.91493825 -23.59203303 51.32909906 C-23.59152476 47.99874282 -23.59898976 44.66891761 -23.61838913 41.33858109 C-23.63801596 37.62138615 -23.63222307 33.90504479 -23.62017822 30.18783569 C-23.63141724 29.09458481 -23.64265625 28.00133392 -23.65423584 26.87495422 C-23.5903543 19.10437451 -22.15345966 13.67001303 -16.95074463 7.80648804 C-15.83506104 6.8590271 -15.83506104 6.8590271 -14.69683838 5.89242554 C-13.95562744 5.24531616 -13.2144165 4.59820679 -12.45074463 3.93148804 C-8.44245079 1.05200545 -4.90801097 0.01877874 0 0 Z " fill="#FEFEC6" transform="translate(525.1343383789063,286.7325744628906)"/>
<path d="M0 0 C1.51796928 -0.01279495 1.51796928 -0.01279495 3.06660461 -0.02584839 C4.16592819 -0.02494202 5.26525177 -0.02403564 6.39788818 -0.02310181 C7.56434372 -0.02981903 8.73079926 -0.03653625 9.93260193 -0.04345703 C13.79054012 -0.06246157 17.64830452 -0.06636268 21.50628662 -0.06851196 C23.51187772 -0.07331408 25.51746885 -0.07811972 27.52305865 -0.08343279 C33.83046908 -0.09970372 40.13782246 -0.10460307 46.44525146 -0.10317993 C52.93514128 -0.10197988 59.4246978 -0.12305704 65.91450334 -0.15466726 C71.49942777 -0.18089303 77.0842438 -0.19154455 82.66922927 -0.19026911 C85.99907344 -0.18976116 89.32838646 -0.19721179 92.65821075 -0.21662521 C96.37770508 -0.23627765 100.09634814 -0.23044861 103.81585693 -0.21841431 C104.90708359 -0.22965332 105.99831024 -0.24089233 107.12260437 -0.25247192 C115.02172011 -0.18771265 121.31985759 1.24131187 127.42425537 6.45101929 C128.04429443 7.19480835 128.6643335 7.93859741 129.30316162 8.70492554 C130.26029053 9.81674194 130.26029053 9.81674194 131.23675537 10.95101929 C134.06746797 14.97646909 135.11434697 18.50382865 135.13308716 23.40176392 C135.14588211 24.9197332 135.14588211 24.9197332 135.15893555 26.46836853 C135.15757599 28.1173539 135.15757599 28.1173539 135.15618896 29.7996521 C135.16290619 30.96610764 135.16962341 32.13256317 135.17654419 33.33436584 C135.19554873 37.19230404 135.19944984 41.05006844 135.20159912 44.90805054 C135.20640123 46.91364163 135.21120687 48.91923276 135.21651995 50.92482257 C135.23279088 57.232233 135.23769023 63.53958637 135.23626709 69.84701538 C135.23506704 76.3369052 135.2561442 82.82646171 135.28775442 89.31626725 C135.31398019 94.90119168 135.32463171 100.48600771 135.32335627 106.07099319 C135.32284832 109.40083736 135.33029894 112.73015038 135.34971237 116.05997467 C135.36936481 119.77946899 135.36353577 123.49811206 135.35150146 127.21762085 C135.36274048 128.3088475 135.37397949 129.40007416 135.38555908 130.52436829 C135.32080037 138.42341534 133.87209801 144.68703311 128.71722412 150.82601929 C127.9824585 151.44605835 127.24769287 152.06609741 126.49066162 152.70492554 C125.39624756 153.66205444 125.39624756 153.66205444 124.27972412 154.63851929 C117.98795471 158.88393651 111.5184136 158.56399457 104.20404053 158.55795288 C102.45172874 158.56802872 102.45172874 158.56802872 100.66401672 158.57830811 C96.80670912 158.59728788 92.9495755 158.60121223 89.09222412 158.60336304 C87.08598425 158.6081655 85.07974434 158.61297155 83.07350576 158.61828387 C76.7675579 158.63454341 70.4616671 158.63945502 64.15570068 158.63803101 C57.66520232 158.63682984 51.17503662 158.65793199 44.68462241 158.68951833 C39.09884419 158.71572675 33.51317433 158.72639641 27.92733514 158.72512019 C24.59697891 158.72461192 21.26715369 158.73207692 17.93681717 158.75147629 C14.21962224 158.77110312 10.50328088 158.76531023 6.78607178 158.75326538 C5.69282089 158.76450439 4.59957001 158.77574341 3.47319031 158.787323 C-4.29639086 158.72344967 -9.69805421 157.26735616 -15.59527588 152.11898804 C-16.2269165 151.38422241 -16.85855713 150.64945679 -17.50933838 149.89242554 C-18.15644775 149.16281616 -18.80355713 148.43320679 -19.47027588 147.68148804 C-23.78143195 141.42727572 -23.43090315 134.91501457 -23.42486572 127.60580444 C-23.43158295 126.43759659 -23.43830017 125.26938873 -23.44522095 124.06578064 C-23.46420072 120.20847304 -23.46812507 116.35133941 -23.47027588 112.49398804 C-23.47507834 110.48774817 -23.47988439 108.48150826 -23.48519671 106.47526968 C-23.50145625 100.16932182 -23.50636786 93.86343102 -23.50494385 87.5574646 C-23.50374268 81.06696624 -23.52484483 74.57680053 -23.55643117 68.08638632 C-23.58263959 62.5006081 -23.59330926 56.91493825 -23.59203303 51.32909906 C-23.59152476 47.99874282 -23.59898976 44.66891761 -23.61838913 41.33858109 C-23.63801596 37.62138615 -23.63222307 33.90504479 -23.62017822 30.18783569 C-23.63141724 29.09458481 -23.64265625 28.00133392 -23.65423584 26.87495422 C-23.5903543 19.10437451 -22.15345966 13.67001303 -16.95074463 7.80648804 C-15.83506104 6.8590271 -15.83506104 6.8590271 -14.69683838 5.89242554 C-13.95562744 5.24531616 -13.2144165 4.59820679 -12.45074463 3.93148804 C-8.44245079 1.05200545 -4.90801097 0.01877874 0 0 Z " fill="#FEFEC6" transform="translate(867.1343383789063,106.73257446289063)"/>
<path d="M0 0 C1.51796928 -0.01279495 1.51796928 -0.01279495 3.06660461 -0.02584839 C4.16592819 -0.02494202 5.26525177 -0.02403564 6.39788818 -0.02310181 C7.56434372 -0.02981903 8.73079926 -0.03653625 9.93260193 -0.04345703 C13.79054012 -0.06246157 17.64830452 -0.06636268 21.50628662 -0.06851196 C23.51187772 -0.07331408 25.51746885 -0.07811972 27.52305865 -0.08343279 C33.83046908 -0.09970372 40.13782246 -0.10460307 46.44525146 -0.10317993 C52.93514128 -0.10197988 59.4246978 -0.12305704 65.91450334 -0.15466726 C71.49942777 -0.18089303 77.0842438 -0.19154455 82.66922927 -0.19026911 C85.99907344 -0.18976116 89.32838646 -0.19721179 92.65821075 -0.21662521 C96.37770508 -0.23627765 100.09634814 -0.23044861 103.81585693 -0.21841431 C104.90708359 -0.22965332 105.99831024 -0.24089233 107.12260437 -0.25247192 C115.02172011 -0.18771265 121.31985759 1.24131187 127.42425537 6.45101929 C128.04429443 7.19480835 128.6643335 7.93859741 129.30316162 8.70492554 C130.26029053 9.81674194 130.26029053 9.81674194 131.23675537 10.95101929 C134.06746797 14.97646909 135.11434697 18.50382865 135.13308716 23.40176392 C135.14588211 24.9197332 135.14588211 24.9197332 135.15893555 26.46836853 C135.15757599 28.1173539 135.15757599 28.1173539 135.15618896 29.7996521 C135.16290619 30.96610764 135.16962341 32.13256317 135.17654419 33.33436584 C135.19554873 37.19230404 135.19944984 41.05006844 135.20159912 44.90805054 C135.20640123 46.91364163 135.21120687 48.91923276 135.21651995 50.92482257 C135.23279088 57.232233 135.23769023 63.53958637 135.23626709 69.84701538 C135.23506704 76.3369052 135.2561442 82.82646171 135.28775442 89.31626725 C135.31398019 94.90119168 135.32463171 100.48600771 135.32335627 106.07099319 C135.32284832 109.40083736 135.33029894 112.73015038 135.34971237 116.05997467 C135.36936481 119.77946899 135.36353577 123.49811206 135.35150146 127.21762085 C135.36274048 128.3088475 135.37397949 129.40007416 135.38555908 130.52436829 C135.32080037 138.42341534 133.87209801 144.68703311 128.71722412 150.82601929 C127.9824585 151.44605835 127.24769287 152.06609741 126.49066162 152.70492554 C125.39624756 153.66205444 125.39624756 153.66205444 124.27972412 154.63851929 C117.98795471 158.88393651 111.5184136 158.56399457 104.20404053 158.55795288 C102.45172874 158.56802872 102.45172874 158.56802872 100.66401672 158.57830811 C96.80670912 158.59728788 92.9495755 158.60121223 89.09222412 158.60336304 C87.08598425 158.6081655 85.07974434 158.61297155 83.07350576 158.61828387 C76.7675579 158.63454341 70.4616671 158.63945502 64.15570068 158.63803101 C57.66520232 158.63682984 51.17503662 158.65793199 44.68462241 158.68951833 C39.09884419 158.71572675 33.51317433 158.72639641 27.92733514 158.72512019 C24.59697891 158.72461192 21.26715369 158.73207692 17.93681717 158.75147629 C14.21962224 158.77110312 10.50328088 158.76531023 6.78607178 158.75326538 C5.69282089 158.76450439 4.59957001 158.77574341 3.47319031 158.787323 C-4.29639086 158.72344967 -9.69805421 157.26735616 -15.59527588 152.11898804 C-16.2269165 151.38422241 -16.85855713 150.64945679 -17.50933838 149.89242554 C-18.15644775 149.16281616 -18.80355713 148.43320679 -19.47027588 147.68148804 C-23.78143195 141.42727572 -23.43090315 134.91501457 -23.42486572 127.60580444 C-23.43158295 126.43759659 -23.43830017 125.26938873 -23.44522095 124.06578064 C-23.46420072 120.20847304 -23.46812507 116.35133941 -23.47027588 112.49398804 C-23.47507834 110.48774817 -23.47988439 108.48150826 -23.48519671 106.47526968 C-23.50145625 100.16932182 -23.50636786 93.86343102 -23.50494385 87.5574646 C-23.50374268 81.06696624 -23.52484483 74.57680053 -23.55643117 68.08638632 C-23.58263959 62.5006081 -23.59330926 56.91493825 -23.59203303 51.32909906 C-23.59152476 47.99874282 -23.59898976 44.66891761 -23.61838913 41.33858109 C-23.63801596 37.62138615 -23.63222307 33.90504479 -23.62017822 30.18783569 C-23.63141724 29.09458481 -23.64265625 28.00133392 -23.65423584 26.87495422 C-23.5903543 19.10437451 -22.15345966 13.67001303 -16.95074463 7.80648804 C-15.83506104 6.8590271 -15.83506104 6.8590271 -14.69683838 5.89242554 C-13.95562744 5.24531616 -13.2144165 4.59820679 -12.45074463 3.93148804 C-8.44245079 1.05200545 -4.90801097 0.01877874 0 0 Z " fill="#FEFEC6" transform="translate(696.1343383789063,106.73257446289063)"/>
<path d="M0 0 C1.51796928 -0.01279495 1.51796928 -0.01279495 3.06660461 -0.02584839 C4.16592819 -0.02494202 5.26525177 -0.02403564 6.39788818 -0.02310181 C7.56434372 -0.02981903 8.73079926 -0.03653625 9.93260193 -0.04345703 C13.79054012 -0.06246157 17.64830452 -0.06636268 21.50628662 -0.06851196 C23.51187772 -0.07331408 25.51746885 -0.07811972 27.52305865 -0.08343279 C33.83046908 -0.09970372 40.13782246 -0.10460307 46.44525146 -0.10317993 C52.93514128 -0.10197988 59.4246978 -0.12305704 65.91450334 -0.15466726 C71.49942777 -0.18089303 77.0842438 -0.19154455 82.66922927 -0.19026911 C85.99907344 -0.18976116 89.32838646 -0.19721179 92.65821075 -0.21662521 C96.37770508 -0.23627765 100.09634814 -0.23044861 103.81585693 -0.21841431 C104.90708359 -0.22965332 105.99831024 -0.24089233 107.12260437 -0.25247192 C115.02172011 -0.18771265 121.31985759 1.24131187 127.42425537 6.45101929 C128.04429443 7.19480835 128.6643335 7.93859741 129.30316162 8.70492554 C130.26029053 9.81674194 130.26029053 9.81674194 131.23675537 10.95101929 C134.06746797 14.97646909 135.11434697 18.50382865 135.13308716 23.40176392 C135.14588211 24.9197332 135.14588211 24.9197332 135.15893555 26.46836853 C135.15757599 28.1173539 135.15757599 28.1173539 135.15618896 29.7996521 C135.16290619 30.96610764 135.16962341 32.13256317 135.17654419 33.33436584 C135.19554873 37.19230404 135.19944984 41.05006844 135.20159912 44.90805054 C135.20640123 46.91364163 135.21120687 48.91923276 135.21651995 50.92482257 C135.23279088 57.232233 135.23769023 63.53958637 135.23626709 69.84701538 C135.23506704 76.3369052 135.2561442 82.82646171 135.28775442 89.31626725 C135.31398019 94.90119168 135.32463171 100.48600771 135.32335627 106.07099319 C135.32284832 109.40083736 135.33029894 112.73015038 135.34971237 116.05997467 C135.36936481 119.77946899 135.36353577 123.49811206 135.35150146 127.21762085 C135.36274048 128.3088475 135.37397949 129.40007416 135.38555908 130.52436829 C135.32080037 138.42341534 133.87209801 144.68703311 128.71722412 150.82601929 C127.9824585 151.44605835 127.24769287 152.06609741 126.49066162 152.70492554 C125.39624756 153.66205444 125.39624756 153.66205444 124.27972412 154.63851929 C117.98795471 158.88393651 111.5184136 158.56399457 104.20404053 158.55795288 C102.45172874 158.56802872 102.45172874 158.56802872 100.66401672 158.57830811 C96.80670912 158.59728788 92.9495755 158.60121223 89.09222412 158.60336304 C87.08598425 158.6081655 85.07974434 158.61297155 83.07350576 158.61828387 C76.7675579 158.63454341 70.4616671 158.63945502 64.15570068 158.63803101 C57.66520232 158.63682984 51.17503662 158.65793199 44.68462241 158.68951833 C39.09884419 158.71572675 33.51317433 158.72639641 27.92733514 158.72512019 C24.59697891 158.72461192 21.26715369 158.73207692 17.93681717 158.75147629 C14.21962224 158.77110312 10.50328088 158.76531023 6.78607178 158.75326538 C5.69282089 158.76450439 4.59957001 158.77574341 3.47319031 158.787323 C-4.29639086 158.72344967 -9.69805421 157.26735616 -15.59527588 152.11898804 C-16.2269165 151.38422241 -16.85855713 150.64945679 -17.50933838 149.89242554 C-18.15644775 149.16281616 -18.80355713 148.43320679 -19.47027588 147.68148804 C-23.78143195 141.42727572 -23.43090315 134.91501457 -23.42486572 127.60580444 C-23.43158295 126.43759659 -23.43830017 125.26938873 -23.44522095 124.06578064 C-23.46420072 120.20847304 -23.46812507 116.35133941 -23.47027588 112.49398804 C-23.47507834 110.48774817 -23.47988439 108.48150826 -23.48519671 106.47526968 C-23.50145625 100.16932182 -23.50636786 93.86343102 -23.50494385 87.5574646 C-23.50374268 81.06696624 -23.52484483 74.57680053 -23.55643117 68.08638632 C-23.58263959 62.5006081 -23.59330926 56.91493825 -23.59203303 51.32909906 C-23.59152476 47.99874282 -23.59898976 44.66891761 -23.61838913 41.33858109 C-23.63801596 37.62138615 -23.63222307 33.90504479 -23.62017822 30.18783569 C-23.63141724 29.09458481 -23.64265625 28.00133392 -23.65423584 26.87495422 C-23.5903543 19.10437451 -22.15345966 13.67001303 -16.95074463 7.80648804 C-15.83506104 6.8590271 -15.83506104 6.8590271 -14.69683838 5.89242554 C-13.95562744 5.24531616 -13.2144165 4.59820679 -12.45074463 3.93148804 C-8.44245079 1.05200545 -4.90801097 0.01877874 0 0 Z " fill="#FEFEC6" transform="translate(525.1343383789063,106.73257446289063)"/>
<path d="M0 0 C0.72549992 -0.00382555 1.45099984 -0.00765109 2.1984846 -0.01159257 C4.62423378 -0.02189332 7.04974497 -0.017936 9.47550964 -0.01396179 C11.21694151 -0.01830995 12.95837147 -0.02349345 14.69979858 -0.02944946 C19.42718317 -0.04284116 24.15448781 -0.04341782 28.88188767 -0.04088616 C32.83057762 -0.03981633 36.7792514 -0.04470027 40.72793788 -0.04949158 C50.04615118 -0.06058788 59.36432418 -0.06102382 68.68254089 -0.05497742 C78.28862086 -0.04893992 87.89455426 -0.06124269 97.50060922 -0.08254749 C105.75300555 -0.10017568 114.0053553 -0.10616282 122.25776976 -0.10290974 C127.18425492 -0.10109831 132.11063558 -0.10371895 137.03710365 -0.11762428 C141.67219308 -0.13021739 146.30705457 -0.12824447 150.94214058 -0.11521339 C152.64003324 -0.1128511 154.33794201 -0.11556984 156.03581619 -0.12383652 C158.36048421 -0.13433567 160.68439185 -0.12617853 163.0090332 -0.11352539 C164.30779798 -0.11369313 165.60656275 -0.11386087 166.94468403 -0.1140337 C172.95864726 0.48688043 178.35361074 2.38733183 182.94499207 6.44819641 C183.88085144 7.24290344 183.88085144 7.24290344 184.83561707 8.05366516 C190.14264083 14.35296858 191.29231241 20.31152585 191.19108582 28.38569641 C191.19254105 29.33202942 191.19399628 30.27836243 191.19549561 31.25337219 C191.19384416 33.2434753 191.18236807 35.23359219 191.1615448 37.22358704 C191.13257392 40.25213946 191.14095588 43.27893959 191.15397644 46.30757141 C191.14773823 48.25028816 191.13934665 50.19299944 191.12858582 52.13569641 C191.13152145 53.03175598 191.13445709 53.92781555 191.13748169 54.85102844 C191.02616367 62.35012459 189.55551397 68.82935829 184.38249207 74.57319641 C183.82948425 75.20870422 183.27647644 75.84421204 182.70671082 76.49897766 C180.69499207 78.26069641 180.69499207 78.26069641 174.69499207 81.26069641 C603.85999207 81.75569641 603.85999207 81.75569641 1041.69499207 82.26069641 C1041.69499207 82.59069641 1041.69499207 82.92069641 1041.69499207 83.26069641 C477.06499207 83.26069641 -87.56500793 83.26069641 -669.30500793 83.26069641 C-669.30500793 82.93069641 -669.30500793 82.60069641 -669.30500793 82.26069641 C-343.10000793 81.76569641 -343.10000793 81.76569641 -10.30500793 81.26069641 C-12.94500793 79.28069641 -15.58500793 77.30069641 -18.30500793 75.26069641 C-25.14022223 68.2768905 -25.61797517 61.53459472 -25.64094543 52.23335266 C-25.64760223 51.28560471 -25.65425903 50.33785675 -25.66111755 49.36138916 C-25.67120167 47.36536081 -25.67593589 45.36929904 -25.6756134 43.37324524 C-25.67998976 40.335811 -25.71636338 37.29982756 -25.75422668 34.26264954 C-25.76009528 32.31538884 -25.76406439 30.3681213 -25.76594543 28.42085266 C-25.78031647 27.52165604 -25.7946875 26.62245941 -25.80949402 25.6960144 C-25.7576886 18.47475385 -23.93931942 13.22959845 -19.12141418 7.79975891 C-18.00573059 6.85229797 -18.00573059 6.85229797 -16.86750793 5.88569641 C-16.126297 5.23858704 -15.38508606 4.59147766 -14.62141418 3.92475891 C-9.8408493 0.49049139 -5.83320704 0.00922819 0 0 Z " fill="#171712" transform="translate(669.3050079345703,673.7393035888672)"/>
<path d="M0 0 C564.63 0 1129.26 0 1711 0 C1711 1.32 1711 2.64 1711 4 C1146.37 4 581.74 4 0 4 C0 2.68 0 1.36 0 0 Z " fill="#4C3E2C" transform="translate(0,0)"/>
<path d="M0 0 C3.31301121 1.72021736 5.41950434 3.0913981 7.4375 6.25 C8.4706542 11.30097608 7.8400255 15.35495007 5.5 19.9375 C1.91737343 22.89316692 -1.40867033 23.41813895 -6 23 C-9.14143187 21.26218662 -10.52034483 19.78489027 -12.375 16.75 C-13.2365756 12.95906738 -13.06523413 9.73965174 -12 6 C-8.56042955 0.78516739 -6.24606169 -0.60058286 0 0 Z " fill="#080A0B" transform="translate(843,26)"/>
<path d="M0 0 C9.24 0 18.48 0 28 0 C28 2.31 28 4.62 28 7 C27.46375 6.360625 26.9275 5.72125 26.375 5.0625 C23.53893581 2.59960215 21.65669528 2.4758713 18 2 C18.06878614 5.95159258 18.15670428 9.90224623 18.26245117 13.85302734 C18.31209959 15.85882336 18.34654164 17.86497687 18.38085938 19.87109375 C18.4340332 21.75634766 18.4340332 21.75634766 18.48828125 23.6796875 C18.51446533 24.84226074 18.54064941 26.00483398 18.56762695 27.20263672 C18.71031006 28.1257666 18.85299316 29.04889648 19 30 C19.99 30.66 20.98 31.32 22 32 C16.72 32 11.44 32 6 32 C6.99 31.34 7.98 30.68 9 30 C9.51146198 27.09386566 9.51146198 27.09386566 9.51171875 23.6796875 C9.54716797 22.42285156 9.58261719 21.16601562 9.61914062 19.87109375 C9.64169922 18.55238281 9.66425781 17.23367187 9.6875 15.875 C9.72066529 14.53512241 9.75515422 13.19527689 9.79101562 11.85546875 C9.87373327 8.5703967 9.94280693 5.28559968 10 2 C4.29265036 3.31677354 4.29265036 3.31677354 0 7 C0 4.69 0 2.38 0 0 Z " fill="#050406" transform="translate(803,16)"/>
<path d="M0 0 C9.24 0 18.48 0 28 0 C28 2.31 28 4.62 28 7 C27.46375 6.360625 26.9275 5.72125 26.375 5.0625 C23.53893581 2.59960215 21.65669528 2.4758713 18 2 C18.06878614 5.95159258 18.15670428 9.90224623 18.26245117 13.85302734 C18.31209959 15.85882336 18.34654164 17.86497687 18.38085938 19.87109375 C18.4340332 21.75634766 18.4340332 21.75634766 18.48828125 23.6796875 C18.51446533 24.84226074 18.54064941 26.00483398 18.56762695 27.20263672 C18.71031006 28.1257666 18.85299316 29.04889648 19 30 C19.99 30.66 20.98 31.32 22 32 C16.72 32 11.44 32 6 32 C6.99 31.34 7.98 30.68 9 30 C9.51146198 27.09386566 9.51146198 27.09386566 9.51171875 23.6796875 C9.54716797 22.42285156 9.58261719 21.16601562 9.61914062 19.87109375 C9.64169922 18.55238281 9.66425781 17.23367187 9.6875 15.875 C9.72066529 14.53512241 9.75515422 13.19527689 9.79101562 11.85546875 C9.87373327 8.5703967 9.94280693 5.28559968 10 2 C4.29265036 3.31677354 4.29265036 3.31677354 0 7 C0 4.69 0 2.38 0 0 Z " fill="#050406" transform="translate(714,16)"/>
<path d="M0 0 C9.57 0 19.14 0 29 0 C29 2.97 29 5.94 29 9 C28.34 8.67 27.68 8.34 27 8 C26.67 6.68 26.34 5.36 26 4 C23.36 3.34 20.72 2.68 18 2 C18.33 11.24 18.66 20.48 19 30 C20.32 30.66 21.64 31.32 23 32 C17.39 32 11.78 32 6 32 C7.32 31.34 8.64 30.68 10 30 C10.33 20.76 10.66 11.52 11 2 C8.69 2.33 6.38 2.66 4 3 C1.98958997 5.93449408 1.98958997 5.93449408 1 9 C0.67 9 0.34 9 0 9 C0 6.03 0 3.06 0 0 Z " fill="#020204" transform="translate(632,16)"/>
<path d="M0 0 C2.248125 -0.04125 4.49625 -0.0825 6.8125 -0.125 C8.07707031 -0.14820313 9.34164062 -0.17140625 10.64453125 -0.1953125 C14 0 14 0 17 2 C17.5177665 7.43654822 17.5177665 7.43654822 17 10 C16.01 10.99 15.02 11.98 14 13 C15.65 15.64 17.3 18.28 19 21 C17.68 21.33 16.36 21.66 15 22 C14.72027344 21.44570313 14.44054687 20.89140625 14.15234375 20.3203125 C11.86235556 15.97836444 11.86235556 15.97836444 8.109375 13.0234375 C5.99662296 12.41013431 5.99662296 12.41013431 3 12 C3 15.3 3 18.6 3 22 C2.01 22 1.02 22 0 22 C0 14.74 0 7.48 0 0 Z " fill="#E9F8F6" transform="translate(670,703)"/>
<path d="M0 0 C3.77453403 0.21365287 6.29954802 0.5150717 9.4375 2.6875 C11.4218681 5.62436479 11.31577173 7.526511 11 11 C7.37 11 3.74 11 0 11 C0.99 13.64 1.98 16.28 3 19 C6.71599191 19.20086443 7.77208445 19.1519437 11 17 C10.06788763 19.33028092 9.30996602 20.75891532 7.3125 22.3125 C3.84734082 23.34268246 1.47182124 22.92995212 -2 22 C-4.93461194 19.7426062 -5.83401033 18.04291624 -6.4140625 14.3984375 C-6.66819957 9.43607688 -6.68764028 6.8815901 -3.5625 2.875 C-2.716875 2.25625 -1.87125 1.6375 -1 1 C-0.67 0.67 -0.34 0.34 0 0 Z " fill="#050608" transform="translate(861,26)"/>
<path d="M0 0 C5.53846154 0.49230769 5.53846154 0.49230769 7.875 3.0625 C8.431875 4.0215625 8.431875 4.0215625 9 5 C10.32 3.35 11.64 1.7 13 0 C15.375 0.3125 15.375 0.3125 18 1 C20.45416273 4.6812441 20.59384154 7.72261963 20 12 C18.5 14.5 18.5 14.5 17 16 C14.98177083 15.70703125 12.96354167 15.4140625 10.9453125 15.12109375 C8.91859333 14.8315703 8.91859333 14.8315703 7 16 C5.45976004 16.06950541 3.91665012 16.08452357 2.375 16.0625 C1.14910156 16.04896484 1.14910156 16.04896484 -0.1015625 16.03515625 C-0.72804688 16.02355469 -1.35453125 16.01195312 -2 16 C-1.566875 15.39671875 -1.13375 14.7934375 -0.6875 14.171875 C-0.130625 13.37265625 0.42625 12.5734375 1 11.75 C1.556875 10.96109375 2.11375 10.1721875 2.6875 9.359375 C4.32408949 6.86738917 4.32408949 6.86738917 4 3 C2.02 3.33 0.04 3.66 -2 4 C-1.34 2.68 -0.68 1.36 0 0 Z " fill="#2F494E" transform="translate(1519,762)"/>
<path d="M0 0 C2.9375 1.9375 2.9375 1.9375 5 5 C5.31673357 8.16733566 5.17398601 11.02707024 4 14 C0.66821752 16.20505936 -2.04413585 16.48439153 -6 16 C-8.875 14.5 -8.875 14.5 -11 12 C-11.71730941 9.1770404 -11.71730941 6.8229596 -11 4 C-7.75032314 0.17685075 -4.94151119 -0.92653335 0 0 Z " fill="#477274" transform="translate(1504,762)"/>
<path d="M0 0 C3.0625 1.8125 3.0625 1.8125 5 4 C5 4.99 5 5.98 5 7 C3.0625 6.625 3.0625 6.625 1 6 C0.67 5.34 0.34 4.68 0 4 C-3.3 4 -6.6 4 -10 4 C-11.43632413 8.30897238 -11.71262495 12.14717513 -10.0625 16.4375 C-6.71893043 18.97050725 -3.04720363 18.30544933 1 18 C1.33 16.68 1.66 15.36 2 14 C-0.31 14 -2.62 14 -5 14 C-5 13.01 -5 12.02 -5 11 C-1.7 11 1.6 11 5 11 C5 13.97 5 16.94 5 20 C0.32406345 22.33796828 -2.87808998 22.59450741 -8 22 C-11.89984548 20.34049129 -13.40825166 18.85773069 -15 15 C-15.7099797 10.38513192 -15.62455021 6.99928034 -13.125 3 C-9.17254365 -0.71995892 -5.23001327 -0.66727756 0 0 Z " fill="#DEE9EA" transform="translate(771,703)"/>
<path d="M0 0 C1.76171875 1.04296875 1.76171875 1.04296875 3 3 C3.21714241 5.81127043 3.28284276 8.3883345 3.1875 11.1875 C3.16719727 12.31188477 3.16719727 12.31188477 3.14648438 13.45898438 C3.11118539 15.30629767 3.05737917 17.15324066 3 19 C3.66 19.33 4.32 19.66 5 20 C2 22 2 22 -0.6875 21.625 C-1.8321875 21.315625 -1.8321875 21.315625 -3 21 C-3.33910994 18.95928485 -3.67102704 16.91737379 -4 14.875 C-4.185625 13.73804688 -4.37125 12.60109375 -4.5625 11.4296875 C-4.96956049 8.23862398 -5.07809902 5.21182209 -5 2 C-6.32 2 -7.64 2 -9 2 C-9 3.65 -9 5.3 -9 7 C-12.75 8.125 -12.75 8.125 -15 7 C-14.73852205 3.77510528 -14.39459008 2.3699282 -12 0.125 C-7.8936026 -1.41489902 -4.20365926 -1.24377933 0 0 Z " fill="#080C0C" transform="translate(757,27)"/>
<path d="M0 0 C1.99609375 0.05078125 1.99609375 0.05078125 4.4375 0.3125 C5.64212891 0.43044922 5.64212891 0.43044922 6.87109375 0.55078125 C9 1 9 1 11 3 C10.625 5.625 10.625 5.625 10 8 C8.35 7.67 6.7 7.34 5 7 C4.896875 6.360625 4.79375 5.72125 4.6875 5.0625 C4.460625 4.381875 4.23375 3.70125 4 3 C3.01 2.67 2.02 2.34 1 2 C0.91839252 3.89510699 0.86053541 5.79124504 0.8125 7.6875 C0.77769531 8.74324219 0.74289062 9.79898438 0.70703125 10.88671875 C1.03720292 14.395343 1.85350815 16.22787191 4 19 C6.88185107 19.4217343 8.39722303 19.30138849 11 18 C10 21 10 21 7.875 22.25 C4.21209689 23.20553994 1.66580922 22.88250963 -2 22 C-4.58455285 20.10466125 -4.96275506 19.11173483 -6 16 C-6.40213023 12.61061661 -6.50155322 9.38143944 -6 6 C-3.5625 2.9375 -3.5625 2.9375 -1 1 C-0.67 0.67 -0.34 0.34 0 0 Z " fill="#06090C" transform="translate(772,26)"/>
<path d="M0 0 C2.375 1.5 2.375 1.5 4 3 C3.67 4.65 3.34 6.3 3 8 C1.68 7.67 0.36 7.34 -1 7 C-1.33 5.35 -1.66 3.7 -2 2 C-3.98 2.99 -3.98 2.99 -6 4 C-6.3637349 10.6889412 -6.3637349 10.6889412 -4.8125 17.125 C-3.13413864 19.22920807 -3.13413864 19.22920807 -0.5 19.4375 C2.2399734 19.13104981 2.2399734 19.13104981 5 17 C4.01158836 19.6956681 3.30627815 20.81623311 0.8125 22.3125 C-2.92045546 23.22500022 -5.30310061 23.07546164 -9 22 C-12.1731197 18.74551826 -13.27694313 15.9486754 -13.5625 11.5 C-13.35269854 6.5319015 -11.5408838 4.37227028 -8 1 C-5.19084526 -0.40457737 -3.11189466 -0.24895157 0 0 Z " fill="#070709" transform="translate(690,26)"/>
<path d="M0 0 C1.588125 -0.020625 3.17625 -0.04125 4.8125 -0.0625 C5.70582031 -0.07410156 6.59914063 -0.08570313 7.51953125 -0.09765625 C10 0 10 0 13 1 C13.33 0.67 13.66 0.34 14 0 C16.9375 -0.1875 16.9375 -0.1875 20 0 C22 2 22 2 22.1953125 5.2578125 C22.17210937 6.53398438 22.14890625 7.81015625 22.125 9.125 C22.10695313 10.40632812 22.08890625 11.68765625 22.0703125 13.0078125 C22.04710937 13.99523437 22.02390625 14.98265625 22 16 C21.01 16 20.02 16 19 16 C18.67 12.04 18.34 8.08 18 4 C16.68 4 15.36 4 14 4 C13.67 7.96 13.34 11.92 13 16 C11.68 16 10.36 16 9 16 C8.67 11.71 8.34 7.42 8 3 C6.68 3 5.36 3 4 3 C3.67 7.29 3.34 11.58 3 16 C2.01 16 1.02 16 0 16 C0 10.72 0 5.44 0 0 Z " fill="#CBDDCD" transform="translate(796,709)"/>
<path d="M0 0 C2.0078125 0.23046875 2.0078125 0.23046875 5.0078125 2.23046875 C5.30078125 5.48828125 5.30078125 5.48828125 5.1953125 9.35546875 C5.16824219 10.63679687 5.14117188 11.918125 5.11328125 13.23828125 C5.07847656 14.22570312 5.04367187 15.213125 5.0078125 16.23046875 C3.04977743 16.28435962 1.09132341 16.32321092 -0.8671875 16.35546875 C-2.50300781 16.39027344 -2.50300781 16.39027344 -4.171875 16.42578125 C-6.9921875 16.23046875 -6.9921875 16.23046875 -8.9921875 14.23046875 C-9.2421875 11.73046875 -9.2421875 11.73046875 -8.9921875 9.23046875 C-6.59455565 6.8328369 -5.65945252 6.88766289 -2.3671875 6.60546875 C-1.54992187 6.53070312 -0.73265625 6.4559375 0.109375 6.37890625 C0.73585938 6.32992187 1.36234375 6.2809375 2.0078125 6.23046875 C1.6778125 5.57046875 1.3478125 4.91046875 1.0078125 4.23046875 C-2.5141596 4.15042393 -5.61200219 4.19041173 -8.9921875 5.23046875 C-6.54333959 0.1695164 -5.81255099 0.1179669 0 0 Z " fill="#E4E2D6" transform="translate(787.9921875,708.76953125)"/>
<path d="M0 0 C2.4375 1.6875 2.4375 1.6875 4 4 C4 5.65 4 7.3 4 9 C0.37 9 -3.26 9 -7 9 C-6.67 9.99 -6.34 10.98 -6 12 C-3.03 12.495 -3.03 12.495 0 13 C0 12.34 0 11.68 0 11 C1.32 11.33 2.64 11.66 4 12 C1.58509807 15.09107447 0.45618991 15.93483001 -3.5 16.5 C-7 16 -7 16 -9.4375 14.5 C-11.63828902 10.97873756 -11.80414661 8.04560357 -11 4 C-8.16250305 -0.53999512 -5.10870514 -0.72981502 0 0 Z " fill="#FAF8F0" transform="translate(733,709)"/>
<path d="M0 0 C4 0 8 0 12 0 C12.86625 -0.020625 13.7325 -0.04125 14.625 -0.0625 C17 0 17 0 18 1 C18.07205511 2.68608966 18.08386068 4.37500659 18.0625 6.0625 C18.05347656 6.98160156 18.04445313 7.90070312 18.03515625 8.84765625 C18.02355469 9.55792969 18.01195312 10.26820313 18 11 C12 11 6 11 0 11 C1.2491742 7.54074837 2.67527795 4.85306797 5 2 C3.35 2 1.7 2 0 2 C0 1.34 0 0.68 0 0 Z " fill="#314F52" transform="translate(1686,767)"/>
<path d="M0 0 C2.4375 1.6875 2.4375 1.6875 4 4 C4 5.65 4 7.3 4 9 C0.37 9 -3.26 9 -7 9 C-6.67 9.99 -6.34 10.98 -6 12 C-4.13803054 12.92393164 -4.13803054 12.92393164 -2 13 C-1.01 12.34 -0.02 11.68 1 11 C1.99 11 2.98 11 4 11 C2.125 14.875 2.125 14.875 1 16 C-6.31927942 16.47221158 -6.31927942 16.47221158 -8.734375 14.796875 C-10.40314695 12.42763088 -10.40070089 10.87850015 -10.375 8 C-10.38273438 7.13375 -10.39046875 6.2675 -10.3984375 5.375 C-9.40562938 -0.54291505 -5.29122795 -0.64979992 0 0 Z " fill="#F0EEE5" transform="translate(831,709)"/>
<path d="M0 0 C2.4375 1.6875 2.4375 1.6875 4 4 C4 5.65 4 7.3 4 9 C0.37 9 -3.26 9 -7 9 C-6.67 9.99 -6.34 10.98 -6 12 C-4.13803054 12.92393164 -4.13803054 12.92393164 -2 13 C-1.01 12.34 -0.02 11.68 1 11 C1.99 11 2.98 11 4 11 C2.125 14.875 2.125 14.875 1 16 C-6.31927942 16.47221158 -6.31927942 16.47221158 -8.734375 14.796875 C-10.40314695 12.42763088 -10.40070089 10.87850015 -10.375 8 C-10.38273438 7.13375 -10.39046875 6.2675 -10.3984375 5.375 C-9.40562938 -0.54291505 -5.29122795 -0.64979992 0 0 Z " fill="#F0EEE5" transform="translate(701,709)"/>
<path d="M0 0 C2.97 0 5.94 0 9 0 C9 6.6 9 13.2 9 20 C9.66 20.33 10.32 20.66 11 21 C7.37 21 3.74 21 0 21 C0.33 20.34 0.66 19.68 1 19 C1.15004973 17.6265365 1.24838006 16.2471474 1.31640625 14.8671875 C1.35830078 14.06152344 1.40019531 13.25585938 1.44335938 12.42578125 C1.48267578 11.58402344 1.52199219 10.74226563 1.5625 9.875 C1.60568359 9.02550781 1.64886719 8.17601562 1.69335938 7.30078125 C1.79954236 5.20071777 1.90028497 3.10038052 2 1 C1.34 0.67 0.68 0.34 0 0 Z " fill="#06090A" transform="translate(663,27)"/>
<path d="M0 0 C2.87496365 0.31080688 4.56589612 0.61240725 6.75 2.5625 C8.49232492 5.96003359 9.11660231 9.2177127 9 13 C7.73606242 16.721594 6.67463356 18.4810511 3.5625 20.875 C1 22 1 22 -3 22 C-3 21.34 -3 20.68 -3 20 C-1.68 19.34 -0.36 18.68 1 18 C1.02698422 15.56242587 1.04683099 13.12515085 1.0625 10.6875 C1.07087891 9.99720703 1.07925781 9.30691406 1.08789062 8.59570312 C1.10307906 5.4516975 1.00193327 3.00579981 0 0 Z " fill="#040509" transform="translate(842,27)"/>
<path d="M0 0 C1.98119355 1.98119355 1.18500411 5.73445064 1.1875 8.4375 C1.19974609 9.13166016 1.21199219 9.82582031 1.22460938 10.54101562 C1.22989842 12.36220901 1.12169207 14.1828692 1 16 C0.34 16.66 -0.32 17.32 -1 18 C-4.53571429 17.46428571 -4.53571429 17.46428571 -6 16 C-6.07319621 13.30345146 -6.09242537 10.63308542 -6.0625 7.9375 C-6.05798828 7.17888672 -6.05347656 6.42027344 -6.04882812 5.63867188 C-6.0370068 3.75908129 -6.01907078 1.87953101 -6 0 C-3.49749232 -1.25125384 -2.59701335 -0.83774624 0 0 Z " fill="#4F817E" transform="translate(843,29)"/>
<path d="M0 0 C1.60332791 -0.08121924 3.20784026 -0.13929134 4.8125 -0.1875 C6.15248047 -0.23970703 6.15248047 -0.23970703 7.51953125 -0.29296875 C10 0 10 0 11.83203125 1.37890625 C13 3 13 3 12.875 5.125 C12.441875 6.053125 12.441875 6.053125 12 7 C11.01 7.33 10.02 7.66 9 8 C9.78375 8.94875 10.5675 9.8975 11.375 10.875 C11.81585937 11.40867187 12.25671875 11.94234375 12.7109375 12.4921875 C13.75250992 13.71051161 14.86660097 14.86660097 16 16 C12.38739215 15.69894935 11.25490423 15.29131912 8.8125 12.5 C8.214375 11.675 7.61625 10.85 7 10 C6.34 9.67 5.68 9.34 5 9 C5 10.98 5 12.96 5 15 C5.66 15.33 6.32 15.66 7 16 C4.69 16 2.38 16 0 16 C0.99 15.67 1.98 15.34 3 15 C3 10.38 3 5.76 3 1 C2.01 0.67 1.02 0.34 0 0 Z " fill="#050516" transform="translate(1658,762)"/>
<path d="M0 0 C3.5625 0.3125 3.5625 0.3125 5.5 1.6875 C6.5625 3.3125 6.5625 3.3125 6.5625 5.3125 C3.89583333 4.64583333 1.22916667 3.97916667 -1.4375 3.3125 C-1.4375 3.9725 -1.4375 4.6325 -1.4375 5.3125 C-0.303125 5.786875 0.83125 6.26125 2 6.75 C5.5625 8.3125 5.5625 8.3125 6.5625 9.3125 C6.8125 11.75 6.8125 11.75 6.5625 14.3125 C2.86763897 16.77574069 0.92956908 16.70241688 -3.4375 16.3125 C-5.375 14.9375 -5.375 14.9375 -6.4375 13.3125 C-6.4375 12.6525 -6.4375 11.9925 -6.4375 11.3125 C-1.4875 12.3025 -1.4875 12.3025 3.5625 13.3125 C3.5625 12.3225 3.5625 11.3325 3.5625 10.3125 C2.44875 10.18875 1.335 10.065 0.1875 9.9375 C-3.4375 9.3125 -3.4375 9.3125 -5.4375 7.3125 C-5.6875 4.8125 -5.6875 4.8125 -5.4375 2.3125 C-3.4375 0.3125 -3.4375 0.3125 0 0 Z " fill="#EDEEE8" transform="translate(713.4375,708.6875)"/>
<path d="M0 0 C0.66 0 1.32 0 2 0 C2.33 1.98 2.66 3.96 3 6 C3.804375 6.144375 4.60875 6.28875 5.4375 6.4375 C8 7 8 7 9 8 C9.45875252 13.27565392 9.45875252 13.27565392 7.8125 15.875 C5.41409825 17.36366316 3.77193929 17.29178308 1 17 C0 16 0 16 -0.09765625 12.40234375 C-0.0909822 10.91403133 -0.07902183 9.42573568 -0.0625 7.9375 C-0.05798828 7.17888672 -0.05347656 6.42027344 -0.04882812 5.63867188 C-0.0370068 3.75908129 -0.01907078 1.87953101 0 0 Z " fill="#12202B" transform="translate(1572,761)"/>
<path d="M0 0 C1.875 1.5 1.875 1.5 3 3 C1.8125 4.5625 1.8125 4.5625 0 6 C-2.6875 5.6875 -2.6875 5.6875 -5 5 C-5.33 6.65 -5.66 8.3 -6 10 C-3.525 10.99 -3.525 10.99 -1 12 C-1 12.33 -1 12.66 -1 13 C-2.65 13 -4.3 13 -6 13 C-6 13.66 -6 14.32 -6 15 C-9.875 13.125 -9.875 13.125 -11 12 C-11.28803699 9.07162397 -11.48693199 6.84965878 -11 4 C-7.72595624 0.14818382 -4.97479993 -0.75703477 0 0 Z " fill="#345051" transform="translate(1504,762)"/>
<path d="M0 0 C3.69900008 0.88776002 7.34550461 1.94581864 11 3 C11 3.99 11 4.98 11 6 C7.43672942 6.08098342 4.43949858 5.85987464 1 5 C0.01 5.495 0.01 5.495 -1 6 C-1 5.34 -1 4.68 -1 4 C-1.886875 4.53625 -2.77375 5.0725 -3.6875 5.625 C-7 7 -7 7 -9.875 6.1875 C-10.57625 5.795625 -11.2775 5.40375 -12 5 C-12 4.01 -12 3.02 -12 2 C-8.04 2 -4.08 2 0 2 C0 1.34 0 0.68 0 0 Z " fill="#211F1E" transform="translate(706,716)"/>
<path d="M0 0 C1.45792884 -0.05399736 2.91642712 -0.09279177 4.375 -0.125 C5.18710937 -0.14820313 5.99921875 -0.17140625 6.8359375 -0.1953125 C9 0 9 0 11 2 C10.75 4.5625 10.75 4.5625 10 7 C6.78548731 8.60725635 3.56387464 8.05748185 0 8 C0 5.36 0 2.72 0 0 Z " fill="#2F2321" transform="translate(673,705)"/>
<path d="M0 0 C2.4375 1.6875 2.4375 1.6875 4 4 C4.25 6.75 4.25 6.75 4 9 C3.34 8.01 2.68 7.02 2 6 C1.67 6.33 1.34 6.66 1 7 C-0.51928038 7.07179964 -2.04167482 7.08392007 -3.5625 7.0625 C-4.38878906 7.05347656 -5.21507812 7.04445313 -6.06640625 7.03515625 C-6.70449219 7.02355469 -7.34257813 7.01195312 -8 7 C-8.66 5.68 -9.32 4.36 -10 3 C-7.29602194 -0.81738079 -4.39903544 -0.54023242 0 0 Z " fill="#EAEADE" transform="translate(831,709)"/>
<path d="M0 0 C2.4375 1.6875 2.4375 1.6875 4 4 C4.25 6.75 4.25 6.75 4 9 C3.34 8.01 2.68 7.02 2 6 C1.67 6.33 1.34 6.66 1 7 C-0.51928038 7.07179964 -2.04167482 7.08392007 -3.5625 7.0625 C-4.38878906 7.05347656 -5.21507812 7.04445313 -6.06640625 7.03515625 C-6.70449219 7.02355469 -7.34257813 7.01195312 -8 7 C-8.66 5.68 -9.32 4.36 -10 3 C-7.29602194 -0.81738079 -4.39903544 -0.54023242 0 0 Z " fill="#EAEADE" transform="translate(701,709)"/>
<path d="M0 0 C0.66 0 1.32 0 2 0 C2 1.65 2 3.3 2 5 C2.99 5 3.98 5 5 5 C5 5.66 5 6.32 5 7 C4.01 7 3.02 7 2 7 C2.11351517 8.81325551 2.24112961 10.62563357 2.375 12.4375 C2.47941406 13.95150391 2.47941406 13.95150391 2.5859375 15.49609375 C2.72257813 16.32238281 2.85921875 17.14867187 3 18 C3.66 18.33 4.32 18.66 5 19 C5 19.66 5 20.32 5 21 C3.33388095 21.042721 1.66617115 21.04063832 0 21 C-1 20 -1 20 -1.09765625 17.05859375 C-1.08605469 15.86363281 -1.07445312 14.66867187 -1.0625 13.4375 C-1.05347656 12.23996094 -1.04445313 11.04242187 -1.03515625 9.80859375 C-1.02355469 8.88175781 -1.01195312 7.95492187 -1 7 C-1.66 7 -2.32 7 -3 7 C-3 6.34 -3 5.68 -3 5 C-2.34 5 -1.68 5 -1 5 C-0.67 3.35 -0.34 1.7 0 0 Z " fill="#D8EAF1" transform="translate(741,704)"/>
<path d="M0 0 C0.99 0 1.98 0 3 0 C3.33 1.98 3.66 3.96 4 6 C5.32 6.33 6.64 6.66 8 7 C8 9.97 8 12.94 8 16 C8.66 16.33 9.32 16.66 10 17 C8.35 17 6.7 17 5 17 C5.66 16.67 6.32 16.34 7 16 C7 13.36 7 10.72 7 8 C5.68 8 4.36 8 3 8 C3.33 10.97 3.66 13.94 4 17 C2.35 17 0.7 17 -1 17 C-1.02684679 14.35409986 -1.04676357 11.70846904 -1.0625 9.0625 C-1.07087891 8.30775391 -1.07925781 7.55300781 -1.08789062 6.77539062 C-1.09652441 4.85005687 -1.05224333 2.92464419 -1 1 C-0.67 0.67 -0.34 0.34 0 0 Z " fill="#1C2B2B" transform="translate(1627,761)"/>
<path d="M0 0 C0.66 0.33 1.32 0.66 2 1 C1.505 1.5775 1.01 2.155 0.5 2.75 C-1.36980013 5.10400629 -1.36980013 5.10400629 -1 9 C-0.34 9.66 0.32 10.32 1 11 C-2 13 -2 13 -4.625 12.6875 C-7 12 -7 12 -8 11 C-8.5625 8.25 -8.5625 8.25 -8 5 C-5.59236149 2.83367378 -3.00467045 1.21272843 0 0 Z " fill="#050608" transform="translate(750,36)"/>
<path d="M0 0 C4.62 0 9.24 0 14 0 C14 1.65 14 3.3 14 5 C9.38 5 4.76 5 0 5 C0 3.35 0 1.7 0 0 Z " fill="#040806" transform="translate(786,34)"/>
<path d="M0 0 C4.62 0 9.24 0 14 0 C14 1.65 14 3.3 14 5 C9.38 5 4.76 5 0 5 C0 3.35 0 1.7 0 0 Z " fill="#040806" transform="translate(697,34)"/>
<path d="M0 0 C3 1 3 1 4 3 C4.35555556 10.46666667 4.35555556 10.46666667 2 14 C1.01 13.67 0.02 13.34 -1 13 C-2.5635348 9.87293041 -2.39958487 6.42017557 -2 3 C-1.34 2.01 -0.68 1.02 0 0 Z " fill="#4E7F7E" transform="translate(1533,763)"/>
<path d="M0 0 C3.3 0 6.6 0 10 0 C10 2.97 10 5.94 10 9 C6 11 6 11 3 11 C3 10.34 3 9.68 3 9 C1.68 8.67 0.36 8.34 -1 8 C2.465 7.505 2.465 7.505 6 7 C6.33 5.68 6.66 4.36 7 3 C4.69 3 2.38 3 0 3 C0 2.01 0 1.02 0 0 Z " fill="#DAE1DE" transform="translate(766,714)"/>
<path d="M0 0 C2 2 2 2 2.1953125 5.2578125 C2.16050781 7.17207031 2.16050781 7.17207031 2.125 9.125 C2.10695313 10.40632812 2.08890625 11.68765625 2.0703125 13.0078125 C2.04710937 13.99523437 2.02390625 14.98265625 2 16 C1.01 16 0.02 16 -1 16 C-1.33 12.04 -1.66 8.08 -2 4 C-3.32 4 -4.64 4 -6 4 C-6.99 3.67 -7.98 3.34 -9 3 C-7.06199239 -0.87601523 -3.93373989 -0.24585874 0 0 Z " fill="#EBE7D3" transform="translate(816,709)"/>
<path d="M0 0 C3.0625 1.8125 3.0625 1.8125 5 4 C5 4.99 5 5.98 5 7 C3.0625 6.625 3.0625 6.625 1 6 C0.67 5.34 0.34 4.68 0 4 C-3.3 4 -6.6 4 -10 4 C-10.33 4.66 -10.66 5.32 -11 6 C-11 5.34 -11 4.68 -11 4 C-11.66 3.67 -12.32 3.34 -13 3 C-9.30887084 -0.85161303 -5.00040012 -0.81857084 0 0 Z " fill="#EDE9DE" transform="translate(771,703)"/>
<path d="M0 0 C2.31 0 4.62 0 7 0 C6.67 0.99 6.34 1.98 6 3 C5.34 3 4.68 3 4 3 C3.67 7.29 3.34 11.58 3 16 C2.01 16 1.02 16 0 16 C0 10.72 0 5.44 0 0 Z " fill="#D8EAF1" transform="translate(796,709)"/>
<path d="M0 0 C2.97 0.495 2.97 0.495 6 1 C6 4.3 6 7.6 6 11 C5.34 11 4.68 11 4 11 C3.67 9.02 3.34 7.04 3 5 C2.34 5.66 1.68 6.32 1 7 C1 8.32 1 9.64 1 11 C0.01 10.67 -0.98 10.34 -2 10 C-1.49396008 7.83125748 -1.00016187 6.00032373 0 4 C-0.66 4 -1.32 4 -2 4 C-1.34 2.68 -0.68 1.36 0 0 Z " fill="#2F4647" transform="translate(1677,767)"/>
<path d="M0 0 C3.30616284 3.80208727 7 9.83581485 7 15 C7.66 15.33 8.32 15.66 9 16 C7.02 16 5.04 16 3 16 C3 14.68 3 13.36 3 12 C0.69 11.67 -1.62 11.34 -4 11 C-4.33 11.66 -4.66 12.32 -5 13 C-4.67 11.35 -4.34 9.7 -4 8 C-3.67 8.66 -3.34 9.32 -3 10 C-1.35 10 0.3 10 2 10 C1.484375 9.0925 0.96875 8.185 0.4375 7.25 C-1 4 -1 4 -0.6875 1.625 C-0.460625 1.08875 -0.23375 0.5525 0 0 Z " fill="#0C1014" transform="translate(1607,762)"/>
<path d="M0 0 C1.65 0 3.3 0 5 0 C5.33 1.98 5.66 3.96 6 6 C6.66 5.34 7.32 4.68 8 4 C8 2.68 8 1.36 8 0 C9.32 0.33 10.64 0.66 12 1 C10.93351771 3.32169599 9.84835973 5.63094457 8.75 7.9375 C8.44964844 8.59685547 8.14929687 9.25621094 7.83984375 9.93554688 C5.50008614 14.78929937 5.50008614 14.78929937 2.765625 15.94140625 C2.18296875 15.96074219 1.6003125 15.98007812 1 16 C1 15.34 1 14.68 1 14 C1.99 13.67 2.98 13.34 4 13 C4.5497272 7.36529617 2.95047835 4.61012242 0 0 Z " fill="#15181C" transform="translate(1582,767)"/>
<path d="M0 0 C0.66 0 1.32 0 2 0 C2 3.3 2 6.6 2 10 C2.66 10.33 3.32 10.66 4 11 C3.34 11 2.68 11 2 11 C2 12.65 2 14.3 2 16 C1.34 16 0.68 16 0 16 C0 14.68 0 13.36 0 12 C-2.31 12 -4.62 12 -7 12 C-6.67 11.01 -6.34 10.02 -6 9 C-3.03 9.495 -3.03 9.495 0 10 C-0.185625 8.72125 -0.37125 7.4425 -0.5625 6.125 C-1.125 2.25 -1.125 2.25 0 0 Z " fill="#181922" transform="translate(1559,762)"/>
<path d="M0 0 C1.67542976 0.28604898 3.34385343 0.61781233 5 1 C4.67 1.66 4.34 2.32 4 3 C3.01 2.67 2.02 2.34 1 2 C0.67 3.32 0.34 4.64 0 6 C0.99 6.33 1.98 6.66 3 7 C2.01 7 1.02 7 0 7 C0 9.97 0 12.94 0 16 C0.66 16.33 1.32 16.66 2 17 C0.02 17 -1.96 17 -4 17 C-3.34 16.67 -2.68 16.34 -2 16 C-2 13.03 -2 10.06 -2 7 C-2.66 6.67 -3.32 6.34 -4 6 C-3.34 6 -2.68 6 -2 6 C-1.855625 5.195625 -1.71125 4.39125 -1.5625 3.5625 C-1 1 -1 1 0 0 Z " fill="#120A1C" transform="translate(1649,761)"/>
<path d="M0 0 C1.66611905 -0.042721 3.33382885 -0.04063832 5 0 C6 1 6 1 6.09765625 3.28515625 C6.08605469 4.20167969 6.07445312 5.11820313 6.0625 6.0625 C6.05347656 6.98160156 6.04445313 7.90070312 6.03515625 8.84765625 C6.02355469 9.55792969 6.01195312 10.26820313 6 11 C3.69 11 1.38 11 -1 11 C-1.33 9.68 -1.66 8.36 -2 7 C-1.01 7 -0.02 7 1 7 C0.67 7.66 0.34 8.32 0 9 C1.32 9 2.64 9 4 9 C3.814375 8.236875 3.62875 7.47375 3.4375 6.6875 C3 4 3 4 4 1 C0.9254644 1.7763932 0.9254644 1.7763932 -1 4 C-0.67 2.68 -0.34 1.36 0 0 Z " fill="#181D1F" transform="translate(1698,767)"/>
<path d="M0 0 C1.98 0 3.96 0 6 0 C5.67 1.32 5.34 2.64 5 4 C4.67 3.34 4.34 2.68 4 2 C3.01 1.67 2.02 1.34 1 1 C1 1.99 1 2.98 1 4 C3.475 4.99 3.475 4.99 6 6 C5.67 7.65 5.34 9.3 5 11 C3.02 11 1.04 11 -1 11 C-0.67 9.68 -0.34 8.36 0 7 C0.33 7.66 0.66 8.32 1 9 C1.99 9.33 2.98 9.66 4 10 C2.86695008 6.60085025 1.87481525 5.94745549 -1 4 C-0.67 2.68 -0.34 1.36 0 0 Z " fill="#1C2A2B" transform="translate(1618,767)"/>
<path d="M0 0 C0.66 0.99 1.32 1.98 2 3 C5.06556598 3.73343428 5.06556598 3.73343428 8 4 C8 3.34 8 2.68 8 2 C9.32 2.33 10.64 2.66 12 3 C10.4375 5 10.4375 5 8 7 C4.25 7.25 4.25 7.25 1 7 C-0.0625 5.1875 -0.0625 5.1875 -1 3 C-0.67 2.01 -0.34 1.02 0 0 Z " fill="#F1F1EC" transform="translate(725,718)"/>
<path d="M0 0 C4.29 0 8.58 0 13 0 C12.01 1.485 12.01 1.485 11 3 C8.03 2.67 5.06 2.34 2 2 C2 4.64 2 7.28 2 10 C1.34 10 0.68 10 0 10 C0 6.7 0 3.4 0 0 Z " fill="#FDFDF5" transform="translate(671,703)"/>
<path d="M0 0 C0.33 0 0.66 0 1 0 C1.33 3.63 1.66 7.26 2 11 C0.35 10.67 -1.3 10.34 -3 10 C-3.75 7.8125 -3.75 7.8125 -4 5 C-2.125 2.1875 -2.125 2.1875 0 0 Z " fill="#467676" transform="translate(752,36)"/>
<path d="M0 0 C0.33 0.99 0.66 1.98 1 3 C3.97 3 6.94 3 10 3 C10.33 2.34 10.66 1.68 11 1 C11.33 2.32 11.66 3.64 12 5 C8.37 5 4.74 5 1 5 C0.67 5.99 0.34 6.98 0 8 C-0.33 8 -0.66 8 -1 8 C-1.04241723 5.66705225 -1.04092937 3.33297433 -1 1 C-0.67 0.67 -0.34 0.34 0 0 Z " fill="#FAFEFF" transform="translate(822,713)"/>
<path d="M0 0 C0.33 0.99 0.66 1.98 1 3 C3.97 3 6.94 3 10 3 C10.33 2.34 10.66 1.68 11 1 C11.33 2.32 11.66 3.64 12 5 C8.37 5 4.74 5 1 5 C0.67 5.99 0.34 6.98 0 8 C-0.33 8 -0.66 8 -1 8 C-1.04241723 5.66705225 -1.04092937 3.33297433 -1 1 C-0.67 0.67 -0.34 0.34 0 0 Z " fill="#FAFEFF" transform="translate(692,713)"/>
<path d="M0 0 C1.32 0 2.64 0 4 0 C4.33 2.31 4.66 4.62 5 7 C3.02 7 1.04 7 -1 7 C-1.04254356 5.00045254 -1.04080783 2.99958364 -1 1 C-0.67 0.67 -0.34 0.34 0 0 Z " fill="#4E7E7C" transform="translate(862,28)"/>
<path d="M0 0 C2.475 0.495 2.475 0.495 5 1 C5 2.98 5 4.96 5 7 C3.35 7.33 1.7 7.66 0 8 C0 5.36 0 2.72 0 0 Z " fill="#51827F" transform="translate(1574,769)"/>
<path d="M0 0 C2.125 0.375 2.125 0.375 4 1 C4.625 2.875 4.625 2.875 5 5 C4.34 5.66 3.68 6.32 3 7 C0.875 6.625 0.875 6.625 -1 6 C-1.625 4.125 -1.625 4.125 -2 2 C-1.34 1.34 -0.68 0.68 0 0 Z " fill="#060509" transform="translate(667,15)"/>
<path d="M0 0 C1.859375 0.24609375 1.859375 0.24609375 4 1 C5.265625 2.84765625 5.265625 2.84765625 6.25 5.0625 C6.75273438 6.16271484 6.75273438 6.16271484 7.265625 7.28515625 C7.50796875 7.85105469 7.7503125 8.41695312 8 9 C5.6875 8.8125 5.6875 8.8125 3 8 C0.79029126 5.10451959 0 3.66842255 0 0 Z " fill="#EBEEE5" transform="translate(681,716)"/>
<path d="M0 0 C1.67542976 0.28604898 3.34385343 0.61781233 5 1 C5.33 2.32 5.66 3.64 6 5 C3.36 5 0.72 5 -2 5 C-1.125 1.125 -1.125 1.125 0 0 Z " fill="#434442" transform="translate(826,711)"/>
<path d="M0 0 C1.67542976 0.28604898 3.34385343 0.61781233 5 1 C5.33 2.32 5.66 3.64 6 5 C3.36 5 0.72 5 -2 5 C-1.125 1.125 -1.125 1.125 0 0 Z " fill="#434442" transform="translate(696,711)"/>
<path d="M0 0 C1.32 0 2.64 0 4 0 C4 2.64 4 5.28 4 8 C2.68 8 1.36 8 0 8 C0 5.36 0 2.72 0 0 Z " fill="#537D74" transform="translate(1630,769)"/>
<path d="M0 0 C2.97 0.495 2.97 0.495 6 1 C6.75 3.125 6.75 3.125 7 6 C5.0625 9.3125 5.0625 9.3125 3 12 C3 8.88772805 3.45627049 6.05847848 4 3 C2.02 3.33 0.04 3.66 -2 4 C-1.34 2.68 -0.68 1.36 0 0 Z " fill="#19232B" transform="translate(1543,762)"/>
<path d="M0 0 C2.97 0.495 2.97 0.495 6 1 C6.75 3.125 6.75 3.125 7 6 C5.0625 9.3125 5.0625 9.3125 3 12 C3 8.88772805 3.45627049 6.05847848 4 3 C2.02 3.33 0.04 3.66 -2 4 C-1.34 2.68 -0.68 1.36 0 0 Z " fill="#19232B" transform="translate(1519,762)"/>
<path d="M0 0 C2.475 0.495 2.475 0.495 5 1 C5 2.65 5 4.3 5 6 C3.35 6.33 1.7 6.66 0 7 C0 4.69 0 2.38 0 0 Z " fill="#4E817C" transform="translate(1663,763)"/>
<path d="M0 0 C1.9375 0.1875 1.9375 0.1875 4 1 C5.25 3.0625 5.25 3.0625 6 5 C3.36 5 0.72 5 -2 5 C-1.125 1.125 -1.125 1.125 0 0 Z " fill="#3E3E3C" transform="translate(728,711)"/>
<path d="M0 0 C1.60332791 -0.08121924 3.20784026 -0.13929134 4.8125 -0.1875 C6.15248047 -0.23970703 6.15248047 -0.23970703 7.51953125 -0.29296875 C10 0 10 0 11.828125 1.3828125 C13 3 13 3 12.9375 5.0625 C11.73944098 7.53848865 10.51570636 8.02617818 8 9 C8 8.34 8 7.68 8 7 C8.66 7 9.32 7 10 7 C9.67 5.35 9.34 3.7 9 2 C6.03 1.67 3.06 1.34 0 1 C0 0.67 0 0.34 0 0 Z " fill="#0B1112" transform="translate(1658,762)"/>
<path d="M0 0 C0.99 0 1.98 0 3 0 C3 2.64 3 5.28 3 8 C1.68 8 0.36 8 -1 8 C-1.04241723 5.66705225 -1.04092937 3.33297433 -1 1 C-0.67 0.67 -0.34 0.34 0 0 Z " fill="#477676" transform="translate(1699,768)"/>
<path d="M0 0 C0.66 0 1.32 0 2 0 C2 2.31 2 4.62 2 7 C0.35 7 -1.3 7 -3 7 C-2.38722388 4.03824877 -1.74627478 2.61941217 0 0 Z " fill="#447071" transform="translate(1557,765)"/>
<path d="M0 0 C2.97 0.495 2.97 0.495 6 1 C6 4.3 6 7.6 6 11 C5.34 11 4.68 11 4 11 C3.96261719 10.37351562 3.92523437 9.74703125 3.88671875 9.1015625 C3.82097656 8.28429687 3.75523438 7.46703125 3.6875 6.625 C3.62949219 5.81289063 3.57148437 5.00078125 3.51171875 4.1640625 C3.17009472 1.62078662 3.17009472 1.62078662 0 0 Z " fill="#0F1A25" transform="translate(1677,767)"/>
<path d="M0 0 C-0.33 1.32 -0.66 2.64 -1 4 C-2.98 4 -4.96 4 -7 4 C-7 3.01 -7 2.02 -7 1 C-4.53721199 -0.231394 -2.7204945 -0.07159196 0 0 Z " fill="#2F251C" transform="translate(789,718)"/>
<path d="M0 0 C0.99 0.33 1.98 0.66 3 1 C3.33 2.65 3.66 4.3 4 6 C2.35 6 0.7 6 -1 6 C-0.67 4.02 -0.34 2.04 0 0 Z " fill="#42696A" transform="translate(1605,766)"/>
<path d="M0 0 C0.33 0 0.66 0 1 0 C1.07347656 1.17369141 1.07347656 1.17369141 1.1484375 2.37109375 C1.22320313 3.38300781 1.29796875 4.39492188 1.375 5.4375 C1.44460938 6.44683594 1.51421875 7.45617187 1.5859375 8.49609375 C1.72257813 9.32238281 1.85921875 10.14867187 2 11 C2.66 11.33 3.32 11.66 4 12 C4 12.66 4 13.32 4 14 C2.35 14 0.7 14 -1 14 C-0.67 9.38 -0.34 4.76 0 0 Z " fill="#F7F0D7" transform="translate(742,711)"/>
<path d="M0 0 C0.66 0.33 1.32 0.66 2 1 C1.34 2.98 0.68 4.96 0 7 C-0.66 6.34 -1.32 5.68 -2 5 C-2.33 7.31 -2.66 9.62 -3 12 C-3.33 12 -3.66 12 -4 12 C-4.49230769 4.61538462 -4.49230769 4.61538462 -2 1.5 C-1.34 1.005 -0.68 0.51 0 0 Z " fill="#ABCBDA" transform="translate(726,709)"/>
<path d="M0 0 C0 0.66 0 1.32 0 2 C1.65 2 3.3 2 5 2 C5 2.33 5 2.66 5 3 C1.92382812 3.29296875 1.92382812 3.29296875 -1.15234375 3.5859375 C-1.76207031 3.72257813 -2.37179687 3.85921875 -3 4 C-3.33 4.66 -3.66 5.32 -4 6 C-4 5.34 -4 4.68 -4 4 C-4.66 3.67 -5.32 3.34 -6 3 C-2.25 0 -2.25 0 0 0 Z " fill="#C8CCCB" transform="translate(764,703)"/>
<path d="M0 0 C0.66 0 1.32 0 2 0 C2.33 1.65 2.66 3.3 3 5 C1.68 5.33 0.36 5.66 -1 6 C-1.625 4.125 -1.625 4.125 -2 2 C-1.34 1.34 -0.68 0.68 0 0 Z " fill="#020205" transform="translate(745,29)"/>
<path d="M0 0 C2.50298434 2.93828597 3.46930939 5.17902761 4 9 C3.01 9.495 3.01 9.495 2 10 C-1.07692308 4.58461538 -1.07692308 4.58461538 -0.6875 1.625 C-0.460625 1.08875 -0.23375 0.5525 0 0 Z " fill="#14181C" transform="translate(1607,762)"/>
<path d="M0 0 C0.66 0 1.32 0 2 0 C2 0.99 2 1.98 2 3 C3.65 3.33 5.3 3.66 7 4 C7 4.66 7 5.32 7 6 C4.625 6.125 4.625 6.125 2 6 C1.34 5.34 0.68 4.68 0 4 C0 2.68 0 1.36 0 0 Z " fill="#EFF8FB" transform="translate(779,719)"/>
<path d="M0 0 C1.98 0.495 1.98 0.495 4 1 C4.33 2.32 4.66 3.64 5 5 C3.02 4.34 1.04 3.68 -1 3 C-0.67 2.01 -0.34 1.02 0 0 Z " fill="#30302D" transform="translate(712,711)"/>
<path d="M0 0 C3 1 3 1 6 3 C3.03 3.66 0.06 4.32 -3 5 C-1 1 -1 1 0 0 Z " fill="#C8D3D7" transform="translate(782,709)"/>
<path d="M0 0 C1.65 0 3.3 0 5 0 C5.66 1.32 6.32 2.64 7 4 C4.16032769 4 1.76264289 3.59732819 -1 3 C-0.67 2.01 -0.34 1.02 0 0 Z " fill="#EBF0F0" transform="translate(728,709)"/>
<path d="M0 0 C0.99 0 1.98 0 3 0 C3.25 3.3125 3.25 3.3125 3 7 C1 8.9375 1 8.9375 -1 10 C-1.33 9.34 -1.66 8.68 -2 8 C-1.34 7.67 -0.68 7.34 0 7 C0 4.69 0 2.38 0 0 Z " fill="#D7E8F0" transform="translate(683,704)"/>
<path d="M0 0 C4.455 0.99 4.455 0.99 9 2 C7.68 2.33 6.36 2.66 5 3 C5 3.66 5 4.32 5 5 C3.0625 4.1875 3.0625 4.1875 1 3 C0.67 2.01 0.34 1.02 0 0 Z " fill="#CED6D7" transform="translate(707,720)"/>
<path d="M0 0 C0.66 0.33 1.32 0.66 2 1 C2 2.65 2 4.3 2 6 C1.01 6.33 0.02 6.66 -1 7 C-1.625 5.1875 -1.625 5.1875 -2 3 C-1.34 2.01 -0.68 1.02 0 0 Z " fill="#426A66" transform="translate(1679,771)"/>
<path d="M0 0 C0.66 0.99 1.32 1.98 2 3 C4.56282742 3.72965366 4.56282742 3.72965366 7 4 C5.68 4.33 4.36 4.66 3 5 C3 5.66 3 6.32 3 7 C1.68 6.34 0.36 5.68 -1 5 C-0.67 3.35 -0.34 1.7 0 0 Z " fill="#D5D2C4" transform="translate(725,718)"/>
<path d="M0 0 C0.66 0 1.32 0 2 0 C1.4140625 6.15234375 1.4140625 6.15234375 1 8 C0.01 8.495 0.01 8.495 -1 9 C-1.09765625 2.84765625 -1.09765625 2.84765625 -1 1 C-0.67 0.67 -0.34 0.34 0 0 Z " fill="#F8FCF7" transform="translate(758,707)"/>
<path d="M0 0 C2.31 0.33 4.62 0.66 7 1 C7 1.66 7 2.32 7 3 C4.03 3 1.06 3 -2 3 C-1.34 2.01 -0.68 1.02 0 0 Z " fill="#0B1015" transform="translate(1543,775)"/>
<path d="M0 0 C2.31 0.33 4.62 0.66 7 1 C7 1.66 7 2.32 7 3 C4.03 3 1.06 3 -2 3 C-1.34 2.01 -0.68 1.02 0 0 Z " fill="#0B1015" transform="translate(1519,775)"/>
<path d="M0 0 C1.32 1.65 2.64 3.3 4 5 C3.67 5.66 3.34 6.32 3 7 C1.68 6.34 0.36 5.68 -1 5 C-1 2 -1 2 0 0 Z " fill="#E0E3D9" transform="translate(823,718)"/>
<path d="M0 0 C1.32 1.65 2.64 3.3 4 5 C3.67 5.66 3.34 6.32 3 7 C1.68 6.34 0.36 5.68 -1 5 C-1 2 -1 2 0 0 Z " fill="#E0E3D9" transform="translate(693,718)"/>
<path d="M0 0 C1.32 0.33 2.64 0.66 4 1 C2.68 3.64 1.36 6.28 0 9 C-0.66 8.34 -1.32 7.68 -2 7 C-1.34 6.01 -0.68 5.02 0 4 C0 2.68 0 1.36 0 0 Z " fill="#21363C" transform="translate(1590,767)"/>
<path d="M0 0 C0.33 0 0.66 0 1 0 C1 2.64 1 5.28 1 8 C-0.98 8.99 -0.98 8.99 -3 10 C-2.690625 9.278125 -2.38125 8.55625 -2.0625 7.8125 C-1.07439461 5.19692691 -0.4712246 2.74881018 0 0 Z " fill="#F5E9D0" transform="translate(686,705)"/>
</svg>
